ISO-10303-21;
HEADER;
/* Generated by software containing ST-Developer
 * from STEP Tools, Inc. (www.steptools.com) 
 */

FILE_DESCRIPTION(
/* description */ (''),
/* implementation_level */ '2;1');

FILE_NAME(
/* name */ 'MY-CAM Holder Top.step',
/* time_stamp */ '2026-08-25T12:54:36-05:00',
/* author */ (''),
/* organization */ (''),
/* preprocessor_version */ 'ST-DEVELOPER v20.1',
/* originating_system */ 'Autodesk Translation Framework v15.8.0.0',
/* authorisation */ '');

FILE_SCHEMA (('AUTOMOTIVE_DESIGN { 1 0 10303 214 3 1 1 }'));
ENDSEC;

DATA;
#10=MECHANICAL_DESIGN_GEOMETRIC_PRESENTATION_REPRESENTATION('',(#13),#1636);
#11=SHAPE_REPRESENTATION_RELATIONSHIP('SRR','None',#1643,#12);
#12=ADVANCED_BREP_SHAPE_REPRESENTATION('',(#14),#1635);
#13=STYLED_ITEM('',(#1652),#14);
#14=MANIFOLD_SOLID_BREP('Body1',#978);
#15=FACE_BOUND('',#134,.T.);
#16=FACE_BOUND('',#145,.T.);
#17=FACE_BOUND('',#158,.T.);
#18=FACE_BOUND('',#168,.T.);
#19=FACE_BOUND('',#169,.T.);
#20=FACE_BOUND('',#170,.T.);
#21=FACE_BOUND('',#171,.T.);
#22=FACE_BOUND('',#178,.T.);
#23=CYLINDRICAL_SURFACE('',#999,1.5);
#24=CYLINDRICAL_SURFACE('',#1002,2.5);
#25=CYLINDRICAL_SURFACE('',#1008,3.);
#26=CYLINDRICAL_SURFACE('',#1012,3.);
#27=CYLINDRICAL_SURFACE('',#1015,1.5);
#28=CYLINDRICAL_SURFACE('',#1018,8.5);
#29=CYLINDRICAL_SURFACE('',#1025,8.5);
#30=CYLINDRICAL_SURFACE('',#1028,2.75);
#31=CYLINDRICAL_SURFACE('',#1034,2.5);
#32=CYLINDRICAL_SURFACE('',#1044,0.5);
#33=CYLINDRICAL_SURFACE('',#1047,3.);
#34=CYLINDRICAL_SURFACE('',#1049,1.5);
#35=CYLINDRICAL_SURFACE('',#1052,2.74999999999999);
#36=CYLINDRICAL_SURFACE('',#1062,8.5);
#37=CYLINDRICAL_SURFACE('',#1065,2.75);
#38=CYLINDRICAL_SURFACE('',#1068,8.5);
#39=CYLINDRICAL_SURFACE('',#1074,0.5);
#40=CYLINDRICAL_SURFACE('',#1075,1.5);
#41=CIRCLE('',#995,3.);
#42=CIRCLE('',#996,3.);
#43=CIRCLE('',#1000,1.5);
#44=CIRCLE('',#1001,1.5);
#45=CIRCLE('',#1003,2.5);
#46=CIRCLE('',#1004,2.5);
#47=CIRCLE('',#1006,3.);
#48=CIRCLE('',#1013,3.);
#49=CIRCLE('',#1016,1.5);
#50=CIRCLE('',#1017,1.5);
#51=CIRCLE('',#1019,8.5);
#52=CIRCLE('',#1020,8.5);
#53=CIRCLE('',#1022,2.75000000000001);
#54=CIRCLE('',#1023,8.5);
#55=CIRCLE('',#1026,8.5);
#56=CIRCLE('',#1029,2.75);
#57=CIRCLE('',#1035,2.5);
#58=CIRCLE('',#1036,2.5);
#59=CIRCLE('',#1040,0.5);
#60=CIRCLE('',#1041,3.);
#61=CIRCLE('',#1042,2.74999999484109);
#62=CIRCLE('',#1043,1.5);
#63=CIRCLE('',#1045,0.5);
#64=CIRCLE('',#1048,3.);
#65=CIRCLE('',#1050,1.5);
#66=CIRCLE('',#1053,2.74999999999999);
#67=CIRCLE('',#1057,0.5);
#68=CIRCLE('',#1058,8.5);
#69=CIRCLE('',#1059,2.75);
#70=CIRCLE('',#1060,8.5);
#71=CIRCLE('',#1061,1.5);
#72=CIRCLE('',#1063,8.5);
#73=CIRCLE('',#1066,2.75);
#74=CIRCLE('',#1069,8.5);
#75=CIRCLE('',#1071,0.5);
#76=CIRCLE('',#1072,1.5);
#77=FACE_OUTER_BOUND('',#126,.T.);
#78=FACE_OUTER_BOUND('',#127,.T.);
#79=FACE_OUTER_BOUND('',#128,.T.);
#80=FACE_OUTER_BOUND('',#129,.T.);
#81=FACE_OUTER_BOUND('',#130,.T.);
#82=FACE_OUTER_BOUND('',#131,.T.);
#83=FACE_OUTER_BOUND('',#132,.T.);
#84=FACE_OUTER_BOUND('',#133,.T.);
#85=FACE_OUTER_BOUND('',#135,.T.);
#86=FACE_OUTER_BOUND('',#136,.T.);
#87=FACE_OUTER_BOUND('',#137,.T.);
#88=FACE_OUTER_BOUND('',#138,.T.);
#89=FACE_OUTER_BOUND('',#139,.T.);
#90=FACE_OUTER_BOUND('',#140,.T.);
#91=FACE_OUTER_BOUND('',#141,.T.);
#92=FACE_OUTER_BOUND('',#142,.T.);
#93=FACE_OUTER_BOUND('',#143,.T.);
#94=FACE_OUTER_BOUND('',#144,.T.);
#95=FACE_OUTER_BOUND('',#146,.T.);
#96=FACE_OUTER_BOUND('',#147,.T.);
#97=FACE_OUTER_BOUND('',#148,.T.);
#98=FACE_OUTER_BOUND('',#149,.T.);
#99=FACE_OUTER_BOUND('',#150,.T.);
#100=FACE_OUTER_BOUND('',#151,.T.);
#101=FACE_OUTER_BOUND('',#152,.T.);
#102=FACE_OUTER_BOUND('',#153,.T.);
#103=FACE_OUTER_BOUND('',#154,.T.);
#104=FACE_OUTER_BOUND('',#155,.T.);
#105=FACE_OUTER_BOUND('',#156,.T.);
#106=FACE_OUTER_BOUND('',#157,.T.);
#107=FACE_OUTER_BOUND('',#159,.T.);
#108=FACE_OUTER_BOUND('',#160,.T.);
#109=FACE_OUTER_BOUND('',#161,.T.);
#110=FACE_OUTER_BOUND('',#162,.T.);
#111=FACE_OUTER_BOUND('',#163,.T.);
#112=FACE_OUTER_BOUND('',#164,.T.);
#113=FACE_OUTER_BOUND('',#165,.T.);
#114=FACE_OUTER_BOUND('',#166,.T.);
#115=FACE_OUTER_BOUND('',#167,.T.);
#116=FACE_OUTER_BOUND('',#172,.T.);
#117=FACE_OUTER_BOUND('',#173,.T.);
#118=FACE_OUTER_BOUND('',#174,.T.);
#119=FACE_OUTER_BOUND('',#175,.T.);
#120=FACE_OUTER_BOUND('',#176,.T.);
#121=FACE_OUTER_BOUND('',#177,.T.);
#122=FACE_OUTER_BOUND('',#179,.T.);
#123=FACE_OUTER_BOUND('',#180,.T.);
#124=FACE_OUTER_BOUND('',#181,.T.);
#125=FACE_OUTER_BOUND('',#182,.T.);
#126=EDGE_LOOP('',(#620,#621,#622,#623));
#127=EDGE_LOOP('',(#624,#625,#626,#627));
#128=EDGE_LOOP('',(#628,#629,#630,#631,#632,#633,#634,#635,#636,#637,#638,
#639,#640,#641));
#129=EDGE_LOOP('',(#642,#643,#644,#645));
#130=EDGE_LOOP('',(#646,#647,#648,#649,#650,#651));
#131=EDGE_LOOP('',(#652,#653,#654,#655));
#132=EDGE_LOOP('',(#656,#657,#658,#659));
#133=EDGE_LOOP('',(#660,#661,#662,#663,#664,#665));
#134=EDGE_LOOP('',(#666));
#135=EDGE_LOOP('',(#667,#668,#669,#670));
#136=EDGE_LOOP('',(#671,#672,#673,#674));
#137=EDGE_LOOP('',(#675,#676,#677,#678,#679,#680));
#138=EDGE_LOOP('',(#681,#682,#683,#684));
#139=EDGE_LOOP('',(#685,#686,#687,#688));
#140=EDGE_LOOP('',(#689,#690,#691,#692));
#141=EDGE_LOOP('',(#693,#694,#695,#696));
#142=EDGE_LOOP('',(#697,#698,#699,#700));
#143=EDGE_LOOP('',(#701,#702,#703,#704));
#144=EDGE_LOOP('',(#705,#706,#707,#708,#709,#710,#711,#712,#713));
#145=EDGE_LOOP('',(#714));
#146=EDGE_LOOP('',(#715,#716,#717,#718,#719));
#147=EDGE_LOOP('',(#720,#721,#722,#723,#724));
#148=EDGE_LOOP('',(#725,#726,#727,#728));
#149=EDGE_LOOP('',(#729,#730,#731,#732));
#150=EDGE_LOOP('',(#733,#734,#735,#736));
#151=EDGE_LOOP('',(#737,#738,#739,#740,#741,#742));
#152=EDGE_LOOP('',(#743,#744,#745,#746));
#153=EDGE_LOOP('',(#747,#748,#749,#750));
#154=EDGE_LOOP('',(#751,#752,#753,#754));
#155=EDGE_LOOP('',(#755,#756,#757,#758));
#156=EDGE_LOOP('',(#759,#760,#761,#762,#763,#764));
#157=EDGE_LOOP('',(#765,#766,#767,#768,#769,#770,#771,#772,#773,#774,#775));
#158=EDGE_LOOP('',(#776));
#159=EDGE_LOOP('',(#777,#778,#779,#780));
#160=EDGE_LOOP('',(#781,#782,#783,#784));
#161=EDGE_LOOP('',(#785,#786,#787,#788));
#162=EDGE_LOOP('',(#789,#790,#791,#792));
#163=EDGE_LOOP('',(#793,#794,#795,#796));
#164=EDGE_LOOP('',(#797,#798,#799,#800));
#165=EDGE_LOOP('',(#801,#802,#803,#804));
#166=EDGE_LOOP('',(#805,#806,#807,#808,#809,#810));
#167=EDGE_LOOP('',(#811,#812,#813,#814,#815,#816,#817,#818,#819,#820,#821,
#822,#823,#824,#825,#826,#827,#828,#829,#830,#831,#832,#833,#834,#835,#836,
#837,#838,#839,#840,#841,#842,#843,#844));
#168=EDGE_LOOP('',(#845));
#169=EDGE_LOOP('',(#846));
#170=EDGE_LOOP('',(#847));
#171=EDGE_LOOP('',(#848));
#172=EDGE_LOOP('',(#849,#850,#851,#852));
#173=EDGE_LOOP('',(#853,#854,#855,#856));
#174=EDGE_LOOP('',(#857,#858,#859,#860));
#175=EDGE_LOOP('',(#861,#862,#863,#864));
#176=EDGE_LOOP('',(#865,#866,#867,#868));
#177=EDGE_LOOP('',(#869,#870,#871,#872,#873,#874,#875,#876,#877,#878));
#178=EDGE_LOOP('',(#879));
#179=EDGE_LOOP('',(#880,#881,#882,#883));
#180=EDGE_LOOP('',(#884,#885,#886,#887));
#181=EDGE_LOOP('',(#888,#889,#890,#891));
#182=EDGE_LOOP('',(#892,#893,#894,#895,#896,#897));
#183=LINE('',#1356,#286);
#184=LINE('',#1358,#287);
#185=LINE('',#1360,#288);
#186=LINE('',#1361,#289);
#187=LINE('',#1365,#290);
#188=LINE('',#1367,#291);
#189=LINE('',#1369,#292);
#190=LINE('',#1370,#293);
#191=LINE('',#1374,#294);
#192=LINE('',#1375,#295);
#193=LINE('',#1377,#296);
#194=LINE('',#1378,#297);
#195=LINE('',#1380,#298);
#196=LINE('',#1384,#299);
#197=LINE('',#1386,#300);
#198=LINE('',#1388,#301);
#199=LINE('',#1392,#302);
#200=LINE('',#1393,#303);
#201=LINE('',#1396,#304);
#202=LINE('',#1398,#305);
#203=LINE('',#1399,#306);
#204=LINE('',#1402,#307);
#205=LINE('',#1404,#308);
#206=LINE('',#1406,#309);
#207=LINE('',#1407,#310);
#208=LINE('',#1412,#311);
#209=LINE('',#1419,#312);
#210=LINE('',#1422,#313);
#211=LINE('',#1427,#314);
#212=LINE('',#1428,#315);
#213=LINE('',#1429,#316);
#214=LINE('',#1432,#317);
#215=LINE('',#1433,#318);
#216=LINE('',#1435,#319);
#217=LINE('',#1437,#320);
#218=LINE('',#1439,#321);
#219=LINE('',#1442,#322);
#220=LINE('',#1444,#323);
#221=LINE('',#1445,#324);
#222=LINE('',#1448,#325);
#223=LINE('',#1452,#326);
#224=LINE('',#1453,#327);
#225=LINE('',#1458,#328);
#226=LINE('',#1465,#329);
#227=LINE('',#1468,#330);
#228=LINE('',#1470,#331);
#229=LINE('',#1472,#332);
#230=LINE('',#1476,#333);
#231=LINE('',#1479,#334);
#232=LINE('',#1484,#335);
#233=LINE('',#1485,#336);
#234=LINE('',#1488,#337);
#235=LINE('',#1489,#338);
#236=LINE('',#1493,#339);
#237=LINE('',#1495,#340);
#238=LINE('',#1498,#341);
#239=LINE('',#1500,#342);
#240=LINE('',#1502,#343);
#241=LINE('',#1503,#344);
#242=LINE('',#1507,#345);
#243=LINE('',#1509,#346);
#244=LINE('',#1511,#347);
#245=LINE('',#1512,#348);
#246=LINE('',#1515,#349);
#247=LINE('',#1517,#350);
#248=LINE('',#1518,#351);
#249=LINE('',#1523,#352);
#250=LINE('',#1527,#353);
#251=LINE('',#1529,#354);
#252=LINE('',#1530,#355);
#253=LINE('',#1532,#356);
#254=LINE('',#1533,#357);
#255=LINE('',#1538,#358);
#256=LINE('',#1542,#359);
#257=LINE('',#1549,#360);
#258=LINE('',#1552,#361);
#259=LINE('',#1553,#362);
#260=LINE('',#1557,#363);
#261=LINE('',#1560,#364);
#262=LINE('',#1564,#365);
#263=LINE('',#1565,#366);
#264=LINE('',#1570,#367);
#265=LINE('',#1572,#368);
#266=LINE('',#1573,#369);
#267=LINE('',#1576,#370);
#268=LINE('',#1578,#371);
#269=LINE('',#1579,#372);
#270=LINE('',#1582,#373);
#271=LINE('',#1586,#374);
#272=LINE('',#1590,#375);
#273=LINE('',#1594,#376);
#274=LINE('',#1600,#377);
#275=LINE('',#1604,#378);
#276=LINE('',#1605,#379);
#277=LINE('',#1608,#380);
#278=LINE('',#1612,#381);
#279=LINE('',#1613,#382);
#280=LINE('',#1616,#383);
#281=LINE('',#1620,#384);
#282=LINE('',#1623,#385);
#283=LINE('',#1627,#386);
#284=LINE('',#1629,#387);
#285=LINE('',#1631,#388);
#286=VECTOR('',#1081,10.);
#287=VECTOR('',#1082,10.);
#288=VECTOR('',#1083,10.);
#289=VECTOR('',#1084,10.);
#290=VECTOR('',#1087,10.);
#291=VECTOR('',#1088,10.);
#292=VECTOR('',#1089,10.);
#293=VECTOR('',#1090,10.);
#294=VECTOR('',#1093,10.);
#295=VECTOR('',#1094,10.);
#296=VECTOR('',#1095,10.);
#297=VECTOR('',#1096,10.);
#298=VECTOR('',#1097,10.);
#299=VECTOR('',#1100,10.);
#300=VECTOR('',#1101,10.);
#301=VECTOR('',#1102,10.);
#302=VECTOR('',#1105,10.);
#303=VECTOR('',#1106,10.);
#304=VECTOR('',#1109,10.);
#305=VECTOR('',#1110,10.);
#306=VECTOR('',#1111,10.);
#307=VECTOR('',#1114,10.);
#308=VECTOR('',#1115,10.);
#309=VECTOR('',#1116,10.);
#310=VECTOR('',#1117,10.);
#311=VECTOR('',#1122,1.5);
#312=VECTOR('',#1129,10.);
#313=VECTOR('',#1132,10.);
#314=VECTOR('',#1137,10.);
#315=VECTOR('',#1138,10.);
#316=VECTOR('',#1139,10.);
#317=VECTOR('',#1142,10.);
#318=VECTOR('',#1143,10.);
#319=VECTOR('',#1146,10.);
#320=VECTOR('',#1149,10.);
#321=VECTOR('',#1152,10.);
#322=VECTOR('',#1155,10.);
#323=VECTOR('',#1156,10.);
#324=VECTOR('',#1157,10.);
#325=VECTOR('',#1160,10.);
#326=VECTOR('',#1165,10.);
#327=VECTOR('',#1166,10.);
#328=VECTOR('',#1171,1.5);
#329=VECTOR('',#1178,10.);
#330=VECTOR('',#1181,10.);
#331=VECTOR('',#1184,10.);
#332=VECTOR('',#1185,10.);
#333=VECTOR('',#1188,10.);
#334=VECTOR('',#1193,10.);
#335=VECTOR('',#1198,10.);
#336=VECTOR('',#1199,10.);
#337=VECTOR('',#1202,10.);
#338=VECTOR('',#1203,10.);
#339=VECTOR('',#1208,10.);
#340=VECTOR('',#1211,10.);
#341=VECTOR('',#1214,10.);
#342=VECTOR('',#1215,10.);
#343=VECTOR('',#1216,10.);
#344=VECTOR('',#1217,10.);
#345=VECTOR('',#1220,10.);
#346=VECTOR('',#1221,10.);
#347=VECTOR('',#1222,10.);
#348=VECTOR('',#1223,10.);
#349=VECTOR('',#1226,10.);
#350=VECTOR('',#1227,10.);
#351=VECTOR('',#1228,10.);
#352=VECTOR('',#1233,10.);
#353=VECTOR('',#1238,10.);
#354=VECTOR('',#1239,10.);
#355=VECTOR('',#1240,10.);
#356=VECTOR('',#1243,10.);
#357=VECTOR('',#1244,10.);
#358=VECTOR('',#1249,10.);
#359=VECTOR('',#1252,10.);
#360=VECTOR('',#1261,10.);
#361=VECTOR('',#1264,10.);
#362=VECTOR('',#1265,10.);
#363=VECTOR('',#1270,10.);
#364=VECTOR('',#1273,1.5);
#365=VECTOR('',#1278,10.);
#366=VECTOR('',#1279,10.);
#367=VECTOR('',#1286,10.);
#368=VECTOR('',#1287,10.);
#369=VECTOR('',#1288,10.);
#370=VECTOR('',#1291,10.);
#371=VECTOR('',#1292,10.);
#372=VECTOR('',#1293,10.);
#373=VECTOR('',#1296,10.);
#374=VECTOR('',#1299,10.);
#375=VECTOR('',#1302,10.);
#376=VECTOR('',#1305,10.);
#377=VECTOR('',#1312,10.);
#378=VECTOR('',#1317,10.);
#379=VECTOR('',#1318,10.);
#380=VECTOR('',#1321,10.);
#381=VECTOR('',#1326,10.);
#382=VECTOR('',#1327,10.);
#383=VECTOR('',#1330,10.);
#384=VECTOR('',#1335,10.);
#385=VECTOR('',#1338,10.);
#386=VECTOR('',#1343,10.);
#387=VECTOR('',#1346,10.);
#388=VECTOR('',#1349,1.5);
#389=VERTEX_POINT('',#1354);
#390=VERTEX_POINT('',#1355);
#391=VERTEX_POINT('',#1357);
#392=VERTEX_POINT('',#1359);
#393=VERTEX_POINT('',#1363);
#394=VERTEX_POINT('',#1364);
#395=VERTEX_POINT('',#1366);
#396=VERTEX_POINT('',#1368);
#397=VERTEX_POINT('',#1372);
#398=VERTEX_POINT('',#1373);
#399=VERTEX_POINT('',#1376);
#400=VERTEX_POINT('',#1379);
#401=VERTEX_POINT('',#1381);
#402=VERTEX_POINT('',#1383);
#403=VERTEX_POINT('',#1385);
#404=VERTEX_POINT('',#1387);
#405=VERTEX_POINT('',#1389);
#406=VERTEX_POINT('',#1391);
#407=VERTEX_POINT('',#1395);
#408=VERTEX_POINT('',#1397);
#409=VERTEX_POINT('',#1401);
#410=VERTEX_POINT('',#1403);
#411=VERTEX_POINT('',#1405);
#412=VERTEX_POINT('',#1409);
#413=VERTEX_POINT('',#1411);
#414=VERTEX_POINT('',#1415);
#415=VERTEX_POINT('',#1416);
#416=VERTEX_POINT('',#1418);
#417=VERTEX_POINT('',#1420);
#418=VERTEX_POINT('',#1424);
#419=VERTEX_POINT('',#1426);
#420=VERTEX_POINT('',#1431);
#421=VERTEX_POINT('',#1441);
#422=VERTEX_POINT('',#1443);
#423=VERTEX_POINT('',#1447);
#424=VERTEX_POINT('',#1451);
#425=VERTEX_POINT('',#1455);
#426=VERTEX_POINT('',#1457);
#427=VERTEX_POINT('',#1461);
#428=VERTEX_POINT('',#1462);
#429=VERTEX_POINT('',#1464);
#430=VERTEX_POINT('',#1466);
#431=VERTEX_POINT('',#1471);
#432=VERTEX_POINT('',#1473);
#433=VERTEX_POINT('',#1475);
#434=VERTEX_POINT('',#1481);
#435=VERTEX_POINT('',#1482);
#436=VERTEX_POINT('',#1487);
#437=VERTEX_POINT('',#1491);
#438=VERTEX_POINT('',#1497);
#439=VERTEX_POINT('',#1499);
#440=VERTEX_POINT('',#1501);
#441=VERTEX_POINT('',#1505);
#442=VERTEX_POINT('',#1506);
#443=VERTEX_POINT('',#1508);
#444=VERTEX_POINT('',#1510);
#445=VERTEX_POINT('',#1514);
#446=VERTEX_POINT('',#1516);
#447=VERTEX_POINT('',#1520);
#448=VERTEX_POINT('',#1522);
#449=VERTEX_POINT('',#1526);
#450=VERTEX_POINT('',#1528);
#451=VERTEX_POINT('',#1535);
#452=VERTEX_POINT('',#1537);
#453=VERTEX_POINT('',#1539);
#454=VERTEX_POINT('',#1541);
#455=VERTEX_POINT('',#1544);
#456=VERTEX_POINT('',#1547);
#457=VERTEX_POINT('',#1551);
#458=VERTEX_POINT('',#1555);
#459=VERTEX_POINT('',#1559);
#460=VERTEX_POINT('',#1563);
#461=VERTEX_POINT('',#1569);
#462=VERTEX_POINT('',#1571);
#463=VERTEX_POINT('',#1575);
#464=VERTEX_POINT('',#1577);
#465=VERTEX_POINT('',#1581);
#466=VERTEX_POINT('',#1583);
#467=VERTEX_POINT('',#1585);
#468=VERTEX_POINT('',#1587);
#469=VERTEX_POINT('',#1589);
#470=VERTEX_POINT('',#1591);
#471=VERTEX_POINT('',#1593);
#472=VERTEX_POINT('',#1596);
#473=VERTEX_POINT('',#1599);
#474=VERTEX_POINT('',#1603);
#475=VERTEX_POINT('',#1607);
#476=VERTEX_POINT('',#1611);
#477=VERTEX_POINT('',#1615);
#478=VERTEX_POINT('',#1619);
#479=VERTEX_POINT('',#1621);
#480=VERTEX_POINT('',#1624);
#481=EDGE_CURVE('',#389,#390,#183,.T.);
#482=EDGE_CURVE('',#389,#391,#184,.T.);
#483=EDGE_CURVE('',#392,#391,#185,.T.);
#484=EDGE_CURVE('',#390,#392,#186,.T.);
#485=EDGE_CURVE('',#393,#394,#187,.T.);
#486=EDGE_CURVE('',#393,#395,#188,.T.);
#487=EDGE_CURVE('',#396,#395,#189,.T.);
#488=EDGE_CURVE('',#394,#396,#190,.T.);
#489=EDGE_CURVE('',#397,#398,#191,.T.);
#490=EDGE_CURVE('',#390,#397,#192,.T.);
#491=EDGE_CURVE('',#399,#392,#193,.T.);
#492=EDGE_CURVE('',#394,#399,#194,.T.);
#493=EDGE_CURVE('',#400,#396,#195,.T.);
#494=EDGE_CURVE('',#401,#400,#41,.T.);
#495=EDGE_CURVE('',#402,#401,#196,.T.);
#496=EDGE_CURVE('',#402,#403,#197,.T.);
#497=EDGE_CURVE('',#404,#403,#198,.T.);
#498=EDGE_CURVE('',#405,#404,#42,.T.);
#499=EDGE_CURVE('',#406,#405,#199,.T.);
#500=EDGE_CURVE('',#406,#398,#200,.T.);
#501=EDGE_CURVE('',#407,#402,#201,.T.);
#502=EDGE_CURVE('',#407,#408,#202,.T.);
#503=EDGE_CURVE('',#403,#408,#203,.T.);
#504=EDGE_CURVE('',#409,#401,#204,.T.);
#505=EDGE_CURVE('',#410,#409,#205,.T.);
#506=EDGE_CURVE('',#411,#410,#206,.T.);
#507=EDGE_CURVE('',#411,#407,#207,.T.);
#508=EDGE_CURVE('',#412,#412,#43,.T.);
#509=EDGE_CURVE('',#412,#413,#208,.T.);
#510=EDGE_CURVE('',#413,#413,#44,.T.);
#511=EDGE_CURVE('',#414,#415,#45,.T.);
#512=EDGE_CURVE('',#415,#416,#209,.T.);
#513=EDGE_CURVE('',#416,#417,#46,.T.);
#514=EDGE_CURVE('',#417,#414,#210,.T.);
#515=EDGE_CURVE('',#409,#418,#47,.T.);
#516=EDGE_CURVE('',#418,#419,#211,.T.);
#517=EDGE_CURVE('',#417,#419,#212,.T.);
#518=EDGE_CURVE('',#410,#416,#213,.T.);
#519=EDGE_CURVE('',#420,#414,#214,.T.);
#520=EDGE_CURVE('',#419,#420,#215,.T.);
#521=EDGE_CURVE('',#418,#400,#216,.T.);
#522=EDGE_CURVE('',#395,#420,#217,.T.);
#523=EDGE_CURVE('',#415,#411,#218,.T.);
#524=EDGE_CURVE('',#421,#405,#219,.T.);
#525=EDGE_CURVE('',#422,#421,#220,.T.);
#526=EDGE_CURVE('',#406,#422,#221,.T.);
#527=EDGE_CURVE('',#423,#404,#222,.T.);
#528=EDGE_CURVE('',#421,#423,#48,.T.);
#529=EDGE_CURVE('',#424,#403,#223,.T.);
#530=EDGE_CURVE('',#423,#424,#224,.T.);
#531=EDGE_CURVE('',#425,#425,#49,.T.);
#532=EDGE_CURVE('',#425,#426,#225,.T.);
#533=EDGE_CURVE('',#426,#426,#50,.T.);
#534=EDGE_CURVE('',#427,#428,#51,.T.);
#535=EDGE_CURVE('',#429,#428,#226,.T.);
#536=EDGE_CURVE('',#429,#430,#52,.T.);
#537=EDGE_CURVE('',#430,#427,#227,.T.);
#538=EDGE_CURVE('',#430,#424,#228,.T.);
#539=EDGE_CURVE('',#429,#431,#229,.T.);
#540=EDGE_CURVE('',#431,#432,#53,.T.);
#541=EDGE_CURVE('',#432,#433,#230,.T.);
#542=EDGE_CURVE('',#422,#433,#54,.T.);
#543=EDGE_CURVE('',#408,#427,#231,.T.);
#544=EDGE_CURVE('',#434,#435,#55,.T.);
#545=EDGE_CURVE('',#435,#406,#232,.T.);
#546=EDGE_CURVE('',#433,#434,#233,.T.);
#547=EDGE_CURVE('',#436,#434,#234,.T.);
#548=EDGE_CURVE('',#432,#436,#235,.T.);
#549=EDGE_CURVE('',#437,#436,#56,.T.);
#550=EDGE_CURVE('',#431,#437,#236,.T.);
#551=EDGE_CURVE('',#428,#437,#237,.T.);
#552=EDGE_CURVE('',#391,#438,#238,.T.);
#553=EDGE_CURVE('',#439,#438,#239,.T.);
#554=EDGE_CURVE('',#440,#439,#240,.T.);
#555=EDGE_CURVE('',#399,#440,#241,.T.);
#556=EDGE_CURVE('',#441,#442,#242,.T.);
#557=EDGE_CURVE('',#442,#443,#243,.T.);
#558=EDGE_CURVE('',#444,#443,#244,.T.);
#559=EDGE_CURVE('',#441,#444,#245,.T.);
#560=EDGE_CURVE('',#442,#445,#246,.T.);
#561=EDGE_CURVE('',#446,#445,#247,.T.);
#562=EDGE_CURVE('',#446,#443,#248,.T.);
#563=EDGE_CURVE('',#445,#447,#57,.T.);
#564=EDGE_CURVE('',#447,#448,#249,.T.);
#565=EDGE_CURVE('',#448,#446,#58,.T.);
#566=EDGE_CURVE('',#447,#449,#250,.T.);
#567=EDGE_CURVE('',#450,#449,#251,.T.);
#568=EDGE_CURVE('',#450,#448,#252,.T.);
#569=EDGE_CURVE('',#450,#440,#253,.T.);
#570=EDGE_CURVE('',#449,#393,#254,.T.);
#571=EDGE_CURVE('',#451,#439,#59,.T.);
#572=EDGE_CURVE('',#452,#451,#255,.T.);
#573=EDGE_CURVE('',#453,#452,#60,.T.);
#574=EDGE_CURVE('',#453,#454,#256,.T.);
#575=EDGE_CURVE('',#454,#444,#61,.T.);
#576=EDGE_CURVE('',#455,#455,#62,.T.);
#577=EDGE_CURVE('',#438,#456,#63,.T.);
#578=EDGE_CURVE('',#456,#451,#257,.T.);
#579=EDGE_CURVE('',#456,#457,#258,.T.);
#580=EDGE_CURVE('',#452,#457,#259,.T.);
#581=EDGE_CURVE('',#457,#458,#64,.T.);
#582=EDGE_CURVE('',#453,#458,#260,.T.);
#583=EDGE_CURVE('',#455,#459,#261,.T.);
#584=EDGE_CURVE('',#459,#459,#65,.T.);
#585=EDGE_CURVE('',#458,#460,#262,.T.);
#586=EDGE_CURVE('',#454,#460,#263,.T.);
#587=EDGE_CURVE('',#460,#441,#66,.T.);
#588=EDGE_CURVE('',#398,#461,#264,.T.);
#589=EDGE_CURVE('',#462,#461,#265,.T.);
#590=EDGE_CURVE('',#397,#462,#266,.F.);
#591=EDGE_CURVE('',#435,#463,#267,.T.);
#592=EDGE_CURVE('',#464,#463,#268,.T.);
#593=EDGE_CURVE('',#464,#461,#269,.T.);
#594=EDGE_CURVE('',#465,#389,#270,.T.);
#595=EDGE_CURVE('',#466,#465,#67,.T.);
#596=EDGE_CURVE('',#467,#466,#271,.T.);
#597=EDGE_CURVE('',#468,#467,#68,.T.);
#598=EDGE_CURVE('',#469,#468,#272,.T.);
#599=EDGE_CURVE('',#470,#469,#69,.T.);
#600=EDGE_CURVE('',#471,#470,#273,.T.);
#601=EDGE_CURVE('',#463,#471,#70,.T.);
#602=EDGE_CURVE('',#472,#472,#71,.T.);
#603=EDGE_CURVE('',#473,#471,#274,.T.);
#604=EDGE_CURVE('',#473,#464,#72,.T.);
#605=EDGE_CURVE('',#474,#470,#275,.T.);
#606=EDGE_CURVE('',#473,#474,#276,.T.);
#607=EDGE_CURVE('',#469,#475,#277,.T.);
#608=EDGE_CURVE('',#474,#475,#73,.T.);
#609=EDGE_CURVE('',#476,#468,#278,.T.);
#610=EDGE_CURVE('',#475,#476,#279,.T.);
#611=EDGE_CURVE('',#467,#477,#280,.T.);
#612=EDGE_CURVE('',#477,#476,#74,.T.);
#613=EDGE_CURVE('',#478,#477,#281,.T.);
#614=EDGE_CURVE('',#479,#478,#75,.T.);
#615=EDGE_CURVE('',#479,#462,#282,.T.);
#616=EDGE_CURVE('',#480,#480,#76,.T.);
#617=EDGE_CURVE('',#478,#466,#283,.T.);
#618=EDGE_CURVE('',#465,#479,#284,.T.);
#619=EDGE_CURVE('',#480,#472,#285,.T.);
#620=ORIENTED_EDGE('',*,*,#481,.F.);
#621=ORIENTED_EDGE('',*,*,#482,.T.);
#622=ORIENTED_EDGE('',*,*,#483,.F.);
#623=ORIENTED_EDGE('',*,*,#484,.F.);
#624=ORIENTED_EDGE('',*,*,#485,.F.);
#625=ORIENTED_EDGE('',*,*,#486,.T.);
#626=ORIENTED_EDGE('',*,*,#487,.F.);
#627=ORIENTED_EDGE('',*,*,#488,.F.);
#628=ORIENTED_EDGE('',*,*,#489,.F.);
#629=ORIENTED_EDGE('',*,*,#490,.F.);
#630=ORIENTED_EDGE('',*,*,#484,.T.);
#631=ORIENTED_EDGE('',*,*,#491,.F.);
#632=ORIENTED_EDGE('',*,*,#492,.F.);
#633=ORIENTED_EDGE('',*,*,#488,.T.);
#634=ORIENTED_EDGE('',*,*,#493,.F.);
#635=ORIENTED_EDGE('',*,*,#494,.F.);
#636=ORIENTED_EDGE('',*,*,#495,.F.);
#637=ORIENTED_EDGE('',*,*,#496,.T.);
#638=ORIENTED_EDGE('',*,*,#497,.F.);
#639=ORIENTED_EDGE('',*,*,#498,.F.);
#640=ORIENTED_EDGE('',*,*,#499,.F.);
#641=ORIENTED_EDGE('',*,*,#500,.T.);
#642=ORIENTED_EDGE('',*,*,#501,.F.);
#643=ORIENTED_EDGE('',*,*,#502,.T.);
#644=ORIENTED_EDGE('',*,*,#503,.F.);
#645=ORIENTED_EDGE('',*,*,#496,.F.);
#646=ORIENTED_EDGE('',*,*,#501,.T.);
#647=ORIENTED_EDGE('',*,*,#495,.T.);
#648=ORIENTED_EDGE('',*,*,#504,.F.);
#649=ORIENTED_EDGE('',*,*,#505,.F.);
#650=ORIENTED_EDGE('',*,*,#506,.F.);
#651=ORIENTED_EDGE('',*,*,#507,.T.);
#652=ORIENTED_EDGE('',*,*,#508,.F.);
#653=ORIENTED_EDGE('',*,*,#509,.T.);
#654=ORIENTED_EDGE('',*,*,#510,.T.);
#655=ORIENTED_EDGE('',*,*,#509,.F.);
#656=ORIENTED_EDGE('',*,*,#511,.T.);
#657=ORIENTED_EDGE('',*,*,#512,.T.);
#658=ORIENTED_EDGE('',*,*,#513,.T.);
#659=ORIENTED_EDGE('',*,*,#514,.T.);
#660=ORIENTED_EDGE('',*,*,#505,.T.);
#661=ORIENTED_EDGE('',*,*,#515,.T.);
#662=ORIENTED_EDGE('',*,*,#516,.T.);
#663=ORIENTED_EDGE('',*,*,#517,.F.);
#664=ORIENTED_EDGE('',*,*,#513,.F.);
#665=ORIENTED_EDGE('',*,*,#518,.F.);
#666=ORIENTED_EDGE('',*,*,#508,.T.);
#667=ORIENTED_EDGE('',*,*,#519,.T.);
#668=ORIENTED_EDGE('',*,*,#514,.F.);
#669=ORIENTED_EDGE('',*,*,#517,.T.);
#670=ORIENTED_EDGE('',*,*,#520,.T.);
#671=ORIENTED_EDGE('',*,*,#494,.T.);
#672=ORIENTED_EDGE('',*,*,#521,.F.);
#673=ORIENTED_EDGE('',*,*,#515,.F.);
#674=ORIENTED_EDGE('',*,*,#504,.T.);
#675=ORIENTED_EDGE('',*,*,#487,.T.);
#676=ORIENTED_EDGE('',*,*,#522,.T.);
#677=ORIENTED_EDGE('',*,*,#520,.F.);
#678=ORIENTED_EDGE('',*,*,#516,.F.);
#679=ORIENTED_EDGE('',*,*,#521,.T.);
#680=ORIENTED_EDGE('',*,*,#493,.T.);
#681=ORIENTED_EDGE('',*,*,#523,.T.);
#682=ORIENTED_EDGE('',*,*,#506,.T.);
#683=ORIENTED_EDGE('',*,*,#518,.T.);
#684=ORIENTED_EDGE('',*,*,#512,.F.);
#685=ORIENTED_EDGE('',*,*,#499,.T.);
#686=ORIENTED_EDGE('',*,*,#524,.F.);
#687=ORIENTED_EDGE('',*,*,#525,.F.);
#688=ORIENTED_EDGE('',*,*,#526,.F.);
#689=ORIENTED_EDGE('',*,*,#498,.T.);
#690=ORIENTED_EDGE('',*,*,#527,.F.);
#691=ORIENTED_EDGE('',*,*,#528,.F.);
#692=ORIENTED_EDGE('',*,*,#524,.T.);
#693=ORIENTED_EDGE('',*,*,#497,.T.);
#694=ORIENTED_EDGE('',*,*,#529,.F.);
#695=ORIENTED_EDGE('',*,*,#530,.F.);
#696=ORIENTED_EDGE('',*,*,#527,.T.);
#697=ORIENTED_EDGE('',*,*,#531,.F.);
#698=ORIENTED_EDGE('',*,*,#532,.T.);
#699=ORIENTED_EDGE('',*,*,#533,.T.);
#700=ORIENTED_EDGE('',*,*,#532,.F.);
#701=ORIENTED_EDGE('',*,*,#534,.T.);
#702=ORIENTED_EDGE('',*,*,#535,.F.);
#703=ORIENTED_EDGE('',*,*,#536,.T.);
#704=ORIENTED_EDGE('',*,*,#537,.T.);
#705=ORIENTED_EDGE('',*,*,#530,.T.);
#706=ORIENTED_EDGE('',*,*,#538,.F.);
#707=ORIENTED_EDGE('',*,*,#536,.F.);
#708=ORIENTED_EDGE('',*,*,#539,.T.);
#709=ORIENTED_EDGE('',*,*,#540,.T.);
#710=ORIENTED_EDGE('',*,*,#541,.T.);
#711=ORIENTED_EDGE('',*,*,#542,.F.);
#712=ORIENTED_EDGE('',*,*,#525,.T.);
#713=ORIENTED_EDGE('',*,*,#528,.T.);
#714=ORIENTED_EDGE('',*,*,#531,.T.);
#715=ORIENTED_EDGE('',*,*,#543,.T.);
#716=ORIENTED_EDGE('',*,*,#537,.F.);
#717=ORIENTED_EDGE('',*,*,#538,.T.);
#718=ORIENTED_EDGE('',*,*,#529,.T.);
#719=ORIENTED_EDGE('',*,*,#503,.T.);
#720=ORIENTED_EDGE('',*,*,#544,.T.);
#721=ORIENTED_EDGE('',*,*,#545,.T.);
#722=ORIENTED_EDGE('',*,*,#526,.T.);
#723=ORIENTED_EDGE('',*,*,#542,.T.);
#724=ORIENTED_EDGE('',*,*,#546,.T.);
#725=ORIENTED_EDGE('',*,*,#547,.T.);
#726=ORIENTED_EDGE('',*,*,#546,.F.);
#727=ORIENTED_EDGE('',*,*,#541,.F.);
#728=ORIENTED_EDGE('',*,*,#548,.T.);
#729=ORIENTED_EDGE('',*,*,#549,.T.);
#730=ORIENTED_EDGE('',*,*,#548,.F.);
#731=ORIENTED_EDGE('',*,*,#540,.F.);
#732=ORIENTED_EDGE('',*,*,#550,.T.);
#733=ORIENTED_EDGE('',*,*,#551,.T.);
#734=ORIENTED_EDGE('',*,*,#550,.F.);
#735=ORIENTED_EDGE('',*,*,#539,.F.);
#736=ORIENTED_EDGE('',*,*,#535,.T.);
#737=ORIENTED_EDGE('',*,*,#491,.T.);
#738=ORIENTED_EDGE('',*,*,#483,.T.);
#739=ORIENTED_EDGE('',*,*,#552,.T.);
#740=ORIENTED_EDGE('',*,*,#553,.F.);
#741=ORIENTED_EDGE('',*,*,#554,.F.);
#742=ORIENTED_EDGE('',*,*,#555,.F.);
#743=ORIENTED_EDGE('',*,*,#556,.T.);
#744=ORIENTED_EDGE('',*,*,#557,.T.);
#745=ORIENTED_EDGE('',*,*,#558,.F.);
#746=ORIENTED_EDGE('',*,*,#559,.F.);
#747=ORIENTED_EDGE('',*,*,#560,.T.);
#748=ORIENTED_EDGE('',*,*,#561,.F.);
#749=ORIENTED_EDGE('',*,*,#562,.T.);
#750=ORIENTED_EDGE('',*,*,#557,.F.);
#751=ORIENTED_EDGE('',*,*,#563,.T.);
#752=ORIENTED_EDGE('',*,*,#564,.T.);
#753=ORIENTED_EDGE('',*,*,#565,.T.);
#754=ORIENTED_EDGE('',*,*,#561,.T.);
#755=ORIENTED_EDGE('',*,*,#566,.T.);
#756=ORIENTED_EDGE('',*,*,#567,.F.);
#757=ORIENTED_EDGE('',*,*,#568,.T.);
#758=ORIENTED_EDGE('',*,*,#564,.F.);
#759=ORIENTED_EDGE('',*,*,#492,.T.);
#760=ORIENTED_EDGE('',*,*,#555,.T.);
#761=ORIENTED_EDGE('',*,*,#569,.F.);
#762=ORIENTED_EDGE('',*,*,#567,.T.);
#763=ORIENTED_EDGE('',*,*,#570,.T.);
#764=ORIENTED_EDGE('',*,*,#485,.T.);
#765=ORIENTED_EDGE('',*,*,#569,.T.);
#766=ORIENTED_EDGE('',*,*,#554,.T.);
#767=ORIENTED_EDGE('',*,*,#571,.F.);
#768=ORIENTED_EDGE('',*,*,#572,.F.);
#769=ORIENTED_EDGE('',*,*,#573,.F.);
#770=ORIENTED_EDGE('',*,*,#574,.T.);
#771=ORIENTED_EDGE('',*,*,#575,.T.);
#772=ORIENTED_EDGE('',*,*,#558,.T.);
#773=ORIENTED_EDGE('',*,*,#562,.F.);
#774=ORIENTED_EDGE('',*,*,#565,.F.);
#775=ORIENTED_EDGE('',*,*,#568,.F.);
#776=ORIENTED_EDGE('',*,*,#576,.T.);
#777=ORIENTED_EDGE('',*,*,#577,.T.);
#778=ORIENTED_EDGE('',*,*,#578,.T.);
#779=ORIENTED_EDGE('',*,*,#571,.T.);
#780=ORIENTED_EDGE('',*,*,#553,.T.);
#781=ORIENTED_EDGE('',*,*,#579,.T.);
#782=ORIENTED_EDGE('',*,*,#580,.F.);
#783=ORIENTED_EDGE('',*,*,#572,.T.);
#784=ORIENTED_EDGE('',*,*,#578,.F.);
#785=ORIENTED_EDGE('',*,*,#581,.T.);
#786=ORIENTED_EDGE('',*,*,#582,.F.);
#787=ORIENTED_EDGE('',*,*,#573,.T.);
#788=ORIENTED_EDGE('',*,*,#580,.T.);
#789=ORIENTED_EDGE('',*,*,#576,.F.);
#790=ORIENTED_EDGE('',*,*,#583,.T.);
#791=ORIENTED_EDGE('',*,*,#584,.T.);
#792=ORIENTED_EDGE('',*,*,#583,.F.);
#793=ORIENTED_EDGE('',*,*,#585,.T.);
#794=ORIENTED_EDGE('',*,*,#586,.F.);
#795=ORIENTED_EDGE('',*,*,#574,.F.);
#796=ORIENTED_EDGE('',*,*,#582,.T.);
#797=ORIENTED_EDGE('',*,*,#587,.T.);
#798=ORIENTED_EDGE('',*,*,#559,.T.);
#799=ORIENTED_EDGE('',*,*,#575,.F.);
#800=ORIENTED_EDGE('',*,*,#586,.T.);
#801=ORIENTED_EDGE('',*,*,#489,.T.);
#802=ORIENTED_EDGE('',*,*,#588,.T.);
#803=ORIENTED_EDGE('',*,*,#589,.F.);
#804=ORIENTED_EDGE('',*,*,#590,.F.);
#805=ORIENTED_EDGE('',*,*,#591,.T.);
#806=ORIENTED_EDGE('',*,*,#592,.F.);
#807=ORIENTED_EDGE('',*,*,#593,.T.);
#808=ORIENTED_EDGE('',*,*,#588,.F.);
#809=ORIENTED_EDGE('',*,*,#500,.F.);
#810=ORIENTED_EDGE('',*,*,#545,.F.);
#811=ORIENTED_EDGE('',*,*,#594,.F.);
#812=ORIENTED_EDGE('',*,*,#595,.F.);
#813=ORIENTED_EDGE('',*,*,#596,.F.);
#814=ORIENTED_EDGE('',*,*,#597,.F.);
#815=ORIENTED_EDGE('',*,*,#598,.F.);
#816=ORIENTED_EDGE('',*,*,#599,.F.);
#817=ORIENTED_EDGE('',*,*,#600,.F.);
#818=ORIENTED_EDGE('',*,*,#601,.F.);
#819=ORIENTED_EDGE('',*,*,#591,.F.);
#820=ORIENTED_EDGE('',*,*,#544,.F.);
#821=ORIENTED_EDGE('',*,*,#547,.F.);
#822=ORIENTED_EDGE('',*,*,#549,.F.);
#823=ORIENTED_EDGE('',*,*,#551,.F.);
#824=ORIENTED_EDGE('',*,*,#534,.F.);
#825=ORIENTED_EDGE('',*,*,#543,.F.);
#826=ORIENTED_EDGE('',*,*,#502,.F.);
#827=ORIENTED_EDGE('',*,*,#507,.F.);
#828=ORIENTED_EDGE('',*,*,#523,.F.);
#829=ORIENTED_EDGE('',*,*,#511,.F.);
#830=ORIENTED_EDGE('',*,*,#519,.F.);
#831=ORIENTED_EDGE('',*,*,#522,.F.);
#832=ORIENTED_EDGE('',*,*,#486,.F.);
#833=ORIENTED_EDGE('',*,*,#570,.F.);
#834=ORIENTED_EDGE('',*,*,#566,.F.);
#835=ORIENTED_EDGE('',*,*,#563,.F.);
#836=ORIENTED_EDGE('',*,*,#560,.F.);
#837=ORIENTED_EDGE('',*,*,#556,.F.);
#838=ORIENTED_EDGE('',*,*,#587,.F.);
#839=ORIENTED_EDGE('',*,*,#585,.F.);
#840=ORIENTED_EDGE('',*,*,#581,.F.);
#841=ORIENTED_EDGE('',*,*,#579,.F.);
#842=ORIENTED_EDGE('',*,*,#577,.F.);
#843=ORIENTED_EDGE('',*,*,#552,.F.);
#844=ORIENTED_EDGE('',*,*,#482,.F.);
#845=ORIENTED_EDGE('',*,*,#584,.F.);
#846=ORIENTED_EDGE('',*,*,#510,.F.);
#847=ORIENTED_EDGE('',*,*,#533,.F.);
#848=ORIENTED_EDGE('',*,*,#602,.F.);
#849=ORIENTED_EDGE('',*,*,#601,.T.);
#850=ORIENTED_EDGE('',*,*,#603,.F.);
#851=ORIENTED_EDGE('',*,*,#604,.T.);
#852=ORIENTED_EDGE('',*,*,#592,.T.);
#853=ORIENTED_EDGE('',*,*,#600,.T.);
#854=ORIENTED_EDGE('',*,*,#605,.F.);
#855=ORIENTED_EDGE('',*,*,#606,.F.);
#856=ORIENTED_EDGE('',*,*,#603,.T.);
#857=ORIENTED_EDGE('',*,*,#599,.T.);
#858=ORIENTED_EDGE('',*,*,#607,.T.);
#859=ORIENTED_EDGE('',*,*,#608,.F.);
#860=ORIENTED_EDGE('',*,*,#605,.T.);
#861=ORIENTED_EDGE('',*,*,#598,.T.);
#862=ORIENTED_EDGE('',*,*,#609,.F.);
#863=ORIENTED_EDGE('',*,*,#610,.F.);
#864=ORIENTED_EDGE('',*,*,#607,.F.);
#865=ORIENTED_EDGE('',*,*,#597,.T.);
#866=ORIENTED_EDGE('',*,*,#611,.T.);
#867=ORIENTED_EDGE('',*,*,#612,.T.);
#868=ORIENTED_EDGE('',*,*,#609,.T.);
#869=ORIENTED_EDGE('',*,*,#589,.T.);
#870=ORIENTED_EDGE('',*,*,#593,.F.);
#871=ORIENTED_EDGE('',*,*,#604,.F.);
#872=ORIENTED_EDGE('',*,*,#606,.T.);
#873=ORIENTED_EDGE('',*,*,#608,.T.);
#874=ORIENTED_EDGE('',*,*,#610,.T.);
#875=ORIENTED_EDGE('',*,*,#612,.F.);
#876=ORIENTED_EDGE('',*,*,#613,.F.);
#877=ORIENTED_EDGE('',*,*,#614,.F.);
#878=ORIENTED_EDGE('',*,*,#615,.T.);
#879=ORIENTED_EDGE('',*,*,#616,.T.);
#880=ORIENTED_EDGE('',*,*,#596,.T.);
#881=ORIENTED_EDGE('',*,*,#617,.F.);
#882=ORIENTED_EDGE('',*,*,#613,.T.);
#883=ORIENTED_EDGE('',*,*,#611,.F.);
#884=ORIENTED_EDGE('',*,*,#595,.T.);
#885=ORIENTED_EDGE('',*,*,#618,.T.);
#886=ORIENTED_EDGE('',*,*,#614,.T.);
#887=ORIENTED_EDGE('',*,*,#617,.T.);
#888=ORIENTED_EDGE('',*,*,#616,.F.);
#889=ORIENTED_EDGE('',*,*,#619,.T.);
#890=ORIENTED_EDGE('',*,*,#602,.T.);
#891=ORIENTED_EDGE('',*,*,#619,.F.);
#892=ORIENTED_EDGE('',*,*,#490,.T.);
#893=ORIENTED_EDGE('',*,*,#590,.T.);
#894=ORIENTED_EDGE('',*,*,#615,.F.);
#895=ORIENTED_EDGE('',*,*,#618,.F.);
#896=ORIENTED_EDGE('',*,*,#594,.T.);
#897=ORIENTED_EDGE('',*,*,#481,.T.);
#898=PLANE('',#992);
#899=PLANE('',#993);
#900=PLANE('',#994);
#901=PLANE('',#997);
#902=PLANE('',#998);
#903=PLANE('',#1005);
#904=PLANE('',#1007);
#905=PLANE('',#1009);
#906=PLANE('',#1010);
#907=PLANE('',#1011);
#908=PLANE('',#1014);
#909=PLANE('',#1021);
#910=PLANE('',#1024);
#911=PLANE('',#1027);
#912=PLANE('',#1030);
#913=PLANE('',#1031);
#914=PLANE('',#1032);
#915=PLANE('',#1033);
#916=PLANE('',#1037);
#917=PLANE('',#1038);
#918=PLANE('',#1039);
#919=PLANE('',#1046);
#920=PLANE('',#1051);
#921=PLANE('',#1054);
#922=PLANE('',#1055);
#923=PLANE('',#1056);
#924=PLANE('',#1064);
#925=PLANE('',#1067);
#926=PLANE('',#1070);
#927=PLANE('',#1073);
#928=PLANE('',#1076);
#929=ADVANCED_FACE('',(#77),#898,.T.);
#930=ADVANCED_FACE('',(#78),#899,.T.);
#931=ADVANCED_FACE('',(#79),#900,.F.);
#932=ADVANCED_FACE('',(#80),#901,.T.);
#933=ADVANCED_FACE('',(#81),#902,.F.);
#934=ADVANCED_FACE('',(#82),#23,.F.);
#935=ADVANCED_FACE('',(#83),#24,.T.);
#936=ADVANCED_FACE('',(#84,#15),#903,.T.);
#937=ADVANCED_FACE('',(#85),#904,.T.);
#938=ADVANCED_FACE('',(#86),#25,.T.);
#939=ADVANCED_FACE('',(#87),#905,.F.);
#940=ADVANCED_FACE('',(#88),#906,.T.);
#941=ADVANCED_FACE('',(#89),#907,.F.);
#942=ADVANCED_FACE('',(#90),#26,.T.);
#943=ADVANCED_FACE('',(#91),#908,.F.);
#944=ADVANCED_FACE('',(#92),#27,.F.);
#945=ADVANCED_FACE('',(#93),#28,.F.);
#946=ADVANCED_FACE('',(#94,#16),#909,.T.);
#947=ADVANCED_FACE('',(#95),#910,.T.);
#948=ADVANCED_FACE('',(#96),#29,.F.);
#949=ADVANCED_FACE('',(#97),#911,.T.);
#950=ADVANCED_FACE('',(#98),#30,.T.);
#951=ADVANCED_FACE('',(#99),#912,.T.);
#952=ADVANCED_FACE('',(#100),#913,.T.);
#953=ADVANCED_FACE('',(#101),#914,.T.);
#954=ADVANCED_FACE('',(#102),#915,.T.);
#955=ADVANCED_FACE('',(#103),#31,.T.);
#956=ADVANCED_FACE('',(#104),#916,.T.);
#957=ADVANCED_FACE('',(#105),#917,.T.);
#958=ADVANCED_FACE('',(#106,#17),#918,.T.);
#959=ADVANCED_FACE('',(#107),#32,.T.);
#960=ADVANCED_FACE('',(#108),#919,.T.);
#961=ADVANCED_FACE('',(#109),#33,.F.);
#962=ADVANCED_FACE('',(#110),#34,.F.);
#963=ADVANCED_FACE('',(#111),#920,.T.);
#964=ADVANCED_FACE('',(#112),#35,.T.);
#965=ADVANCED_FACE('',(#113),#921,.T.);
#966=ADVANCED_FACE('',(#114),#922,.T.);
#967=ADVANCED_FACE('',(#115,#18,#19,#20,#21),#923,.F.);
#968=ADVANCED_FACE('',(#116),#36,.F.);
#969=ADVANCED_FACE('',(#117),#924,.T.);
#970=ADVANCED_FACE('',(#118),#37,.T.);
#971=ADVANCED_FACE('',(#119),#925,.T.);
#972=ADVANCED_FACE('',(#120),#38,.F.);
#973=ADVANCED_FACE('',(#121,#22),#926,.T.);
#974=ADVANCED_FACE('',(#122),#927,.T.);
#975=ADVANCED_FACE('',(#123),#39,.T.);
#976=ADVANCED_FACE('',(#124),#40,.F.);
#977=ADVANCED_FACE('',(#125),#928,.T.);
#978=CLOSED_SHELL('',(#929,#930,#931,#932,#933,#934,#935,#936,#937,#938,
#939,#940,#941,#942,#943,#944,#945,#946,#947,#948,#949,#950,#951,#952,#953,
#954,#955,#956,#957,#958,#959,#960,#961,#962,#963,#964,#965,#966,#967,#968,
#969,#970,#971,#972,#973,#974,#975,#976,#977));
#979=DERIVED_UNIT_ELEMENT(#981,1.);
#980=DERIVED_UNIT_ELEMENT(#1638,-3.);
#981=(
MASS_UNIT()
NAMED_UNIT(*)
SI_UNIT(.KILO.,.GRAM.)
);
#982=DERIVED_UNIT((#979,#980));
#983=MEASURE_REPRESENTATION_ITEM('density measure',
POSITIVE_RATIO_MEASURE(7850.),#982);
#984=PROPERTY_DEFINITION_REPRESENTATION(#989,#986);
#985=PROPERTY_DEFINITION_REPRESENTATION(#990,#987);
#986=REPRESENTATION('material name',(#988),#1635);
#987=REPRESENTATION('density',(#983),#1635);
#988=DESCRIPTIVE_REPRESENTATION_ITEM('Steel','Steel');
#989=PROPERTY_DEFINITION('material property','material name',#1645);
#990=PROPERTY_DEFINITION('material property','density of part',#1645);
#991=AXIS2_PLACEMENT_3D('',#1352,#1077,#1078);
#992=AXIS2_PLACEMENT_3D('',#1353,#1079,#1080);
#993=AXIS2_PLACEMENT_3D('',#1362,#1085,#1086);
#994=AXIS2_PLACEMENT_3D('',#1371,#1091,#1092);
#995=AXIS2_PLACEMENT_3D('',#1382,#1098,#1099);
#996=AXIS2_PLACEMENT_3D('',#1390,#1103,#1104);
#997=AXIS2_PLACEMENT_3D('',#1394,#1107,#1108);
#998=AXIS2_PLACEMENT_3D('',#1400,#1112,#1113);
#999=AXIS2_PLACEMENT_3D('',#1408,#1118,#1119);
#1000=AXIS2_PLACEMENT_3D('',#1410,#1120,#1121);
#1001=AXIS2_PLACEMENT_3D('',#1413,#1123,#1124);
#1002=AXIS2_PLACEMENT_3D('',#1414,#1125,#1126);
#1003=AXIS2_PLACEMENT_3D('',#1417,#1127,#1128);
#1004=AXIS2_PLACEMENT_3D('',#1421,#1130,#1131);
#1005=AXIS2_PLACEMENT_3D('',#1423,#1133,#1134);
#1006=AXIS2_PLACEMENT_3D('',#1425,#1135,#1136);
#1007=AXIS2_PLACEMENT_3D('',#1430,#1140,#1141);
#1008=AXIS2_PLACEMENT_3D('',#1434,#1144,#1145);
#1009=AXIS2_PLACEMENT_3D('',#1436,#1147,#1148);
#1010=AXIS2_PLACEMENT_3D('',#1438,#1150,#1151);
#1011=AXIS2_PLACEMENT_3D('',#1440,#1153,#1154);
#1012=AXIS2_PLACEMENT_3D('',#1446,#1158,#1159);
#1013=AXIS2_PLACEMENT_3D('',#1449,#1161,#1162);
#1014=AXIS2_PLACEMENT_3D('',#1450,#1163,#1164);
#1015=AXIS2_PLACEMENT_3D('',#1454,#1167,#1168);
#1016=AXIS2_PLACEMENT_3D('',#1456,#1169,#1170);
#1017=AXIS2_PLACEMENT_3D('',#1459,#1172,#1173);
#1018=AXIS2_PLACEMENT_3D('',#1460,#1174,#1175);
#1019=AXIS2_PLACEMENT_3D('',#1463,#1176,#1177);
#1020=AXIS2_PLACEMENT_3D('',#1467,#1179,#1180);
#1021=AXIS2_PLACEMENT_3D('',#1469,#1182,#1183);
#1022=AXIS2_PLACEMENT_3D('',#1474,#1186,#1187);
#1023=AXIS2_PLACEMENT_3D('',#1477,#1189,#1190);
#1024=AXIS2_PLACEMENT_3D('',#1478,#1191,#1192);
#1025=AXIS2_PLACEMENT_3D('',#1480,#1194,#1195);
#1026=AXIS2_PLACEMENT_3D('',#1483,#1196,#1197);
#1027=AXIS2_PLACEMENT_3D('',#1486,#1200,#1201);
#1028=AXIS2_PLACEMENT_3D('',#1490,#1204,#1205);
#1029=AXIS2_PLACEMENT_3D('',#1492,#1206,#1207);
#1030=AXIS2_PLACEMENT_3D('',#1494,#1209,#1210);
#1031=AXIS2_PLACEMENT_3D('',#1496,#1212,#1213);
#1032=AXIS2_PLACEMENT_3D('',#1504,#1218,#1219);
#1033=AXIS2_PLACEMENT_3D('',#1513,#1224,#1225);
#1034=AXIS2_PLACEMENT_3D('',#1519,#1229,#1230);
#1035=AXIS2_PLACEMENT_3D('',#1521,#1231,#1232);
#1036=AXIS2_PLACEMENT_3D('',#1524,#1234,#1235);
#1037=AXIS2_PLACEMENT_3D('',#1525,#1236,#1237);
#1038=AXIS2_PLACEMENT_3D('',#1531,#1241,#1242);
#1039=AXIS2_PLACEMENT_3D('',#1534,#1245,#1246);
#1040=AXIS2_PLACEMENT_3D('',#1536,#1247,#1248);
#1041=AXIS2_PLACEMENT_3D('',#1540,#1250,#1251);
#1042=AXIS2_PLACEMENT_3D('',#1543,#1253,#1254);
#1043=AXIS2_PLACEMENT_3D('',#1545,#1255,#1256);
#1044=AXIS2_PLACEMENT_3D('',#1546,#1257,#1258);
#1045=AXIS2_PLACEMENT_3D('',#1548,#1259,#1260);
#1046=AXIS2_PLACEMENT_3D('',#1550,#1262,#1263);
#1047=AXIS2_PLACEMENT_3D('',#1554,#1266,#1267);
#1048=AXIS2_PLACEMENT_3D('',#1556,#1268,#1269);
#1049=AXIS2_PLACEMENT_3D('',#1558,#1271,#1272);
#1050=AXIS2_PLACEMENT_3D('',#1561,#1274,#1275);
#1051=AXIS2_PLACEMENT_3D('',#1562,#1276,#1277);
#1052=AXIS2_PLACEMENT_3D('',#1566,#1280,#1281);
#1053=AXIS2_PLACEMENT_3D('',#1567,#1282,#1283);
#1054=AXIS2_PLACEMENT_3D('',#1568,#1284,#1285);
#1055=AXIS2_PLACEMENT_3D('',#1574,#1289,#1290);
#1056=AXIS2_PLACEMENT_3D('',#1580,#1294,#1295);
#1057=AXIS2_PLACEMENT_3D('',#1584,#1297,#1298);
#1058=AXIS2_PLACEMENT_3D('',#1588,#1300,#1301);
#1059=AXIS2_PLACEMENT_3D('',#1592,#1303,#1304);
#1060=AXIS2_PLACEMENT_3D('',#1595,#1306,#1307);
#1061=AXIS2_PLACEMENT_3D('',#1597,#1308,#1309);
#1062=AXIS2_PLACEMENT_3D('',#1598,#1310,#1311);
#1063=AXIS2_PLACEMENT_3D('',#1601,#1313,#1314);
#1064=AXIS2_PLACEMENT_3D('',#1602,#1315,#1316);
#1065=AXIS2_PLACEMENT_3D('',#1606,#1319,#1320);
#1066=AXIS2_PLACEMENT_3D('',#1609,#1322,#1323);
#1067=AXIS2_PLACEMENT_3D('',#1610,#1324,#1325);
#1068=AXIS2_PLACEMENT_3D('',#1614,#1328,#1329);
#1069=AXIS2_PLACEMENT_3D('',#1617,#1331,#1332);
#1070=AXIS2_PLACEMENT_3D('',#1618,#1333,#1334);
#1071=AXIS2_PLACEMENT_3D('',#1622,#1336,#1337);
#1072=AXIS2_PLACEMENT_3D('',#1625,#1339,#1340);
#1073=AXIS2_PLACEMENT_3D('',#1626,#1341,#1342);
#1074=AXIS2_PLACEMENT_3D('',#1628,#1344,#1345);
#1075=AXIS2_PLACEMENT_3D('',#1630,#1347,#1348);
#1076=AXIS2_PLACEMENT_3D('',#1632,#1350,#1351);
#1077=DIRECTION('axis',(0.,0.,1.));
#1078=DIRECTION('refdir',(1.,0.,0.));
#1079=DIRECTION('center_axis',(1.,0.,0.));
#1080=DIRECTION('ref_axis',(0.,1.,0.));
#1081=DIRECTION('',(0.,0.,1.));
#1082=DIRECTION('',(0.,1.,0.));
#1083=DIRECTION('',(0.,0.,-1.));
#1084=DIRECTION('',(0.,1.,0.));
#1085=DIRECTION('center_axis',(0.,1.,0.));
#1086=DIRECTION('ref_axis',(-1.,0.,0.));
#1087=DIRECTION('',(0.707106781186548,0.,0.707106781186548));
#1088=DIRECTION('',(-1.,0.,0.));
#1089=DIRECTION('',(0.,0.,-1.));
#1090=DIRECTION('',(-1.,0.,0.));
#1091=DIRECTION('center_axis',(0.,0.,-1.));
#1092=DIRECTION('ref_axis',(1.,0.,0.));
#1093=DIRECTION('',(0.,-1.,0.));
#1094=DIRECTION('',(-1.,0.,0.));
#1095=DIRECTION('',(1.,0.,0.));
#1096=DIRECTION('',(0.,-1.,0.));
#1097=DIRECTION('',(0.,1.,0.));
#1098=DIRECTION('center_axis',(0.,0.,1.));
#1099=DIRECTION('ref_axis',(-1.,0.,0.));
#1100=DIRECTION('',(1.,-1.13526224054543E-15,0.));
#1101=DIRECTION('',(-0.00234569018222732,-0.999997248865,0.));
#1102=DIRECTION('',(-1.,0.,0.));
#1103=DIRECTION('center_axis',(0.,0.,1.));
#1104=DIRECTION('ref_axis',(-1.,0.,0.));
#1105=DIRECTION('',(-0.38601568842036,0.922492215844316,0.));
#1106=DIRECTION('',(1.,0.,0.));
#1107=DIRECTION('center_axis',(-0.999997248865,0.00234569018222732,0.));
#1108=DIRECTION('ref_axis',(-0.00234569018222732,-0.999997248865,0.));
#1109=DIRECTION('',(0.,0.,1.));
#1110=DIRECTION('',(-0.00234569018222732,-0.999997248865,0.));
#1111=DIRECTION('',(0.,0.,-1.));
#1112=DIRECTION('center_axis',(1.13526224054543E-15,1.,0.));
#1113=DIRECTION('ref_axis',(1.,-1.13526224054543E-15,0.));
#1114=DIRECTION('',(0.,0.,-1.));
#1115=DIRECTION('',(1.,-1.13526224054543E-15,0.));
#1116=DIRECTION('',(0.,0.,1.));
#1117=DIRECTION('',(1.,-1.13526224054543E-15,0.));
#1118=DIRECTION('center_axis',(0.,0.,1.));
#1119=DIRECTION('ref_axis',(-1.,0.,0.));
#1120=DIRECTION('center_axis',(0.,0.,-1.));
#1121=DIRECTION('ref_axis',(-1.,0.,0.));
#1122=DIRECTION('',(0.,0.,-1.));
#1123=DIRECTION('center_axis',(0.,0.,-1.));
#1124=DIRECTION('ref_axis',(-1.,0.,0.));
#1125=DIRECTION('center_axis',(0.,0.,-1.));
#1126=DIRECTION('ref_axis',(-0.707106781186547,0.707106781186547,0.));
#1127=DIRECTION('center_axis',(0.,0.,1.));
#1128=DIRECTION('ref_axis',(-0.707106781186547,0.707106781186547,0.));
#1129=DIRECTION('',(0.,0.,1.));
#1130=DIRECTION('center_axis',(0.,0.,-1.));
#1131=DIRECTION('ref_axis',(-0.707106781186547,0.707106781186547,0.));
#1132=DIRECTION('',(0.,0.,-1.));
#1133=DIRECTION('center_axis',(0.,0.,1.));
#1134=DIRECTION('ref_axis',(-1.,0.,0.));
#1135=DIRECTION('center_axis',(0.,0.,1.));
#1136=DIRECTION('ref_axis',(-1.,0.,0.));
#1137=DIRECTION('',(0.,1.,0.));
#1138=DIRECTION('',(1.,0.,0.));
#1139=DIRECTION('',(0.,1.,0.));
#1140=DIRECTION('center_axis',(0.,1.,0.));
#1141=DIRECTION('ref_axis',(1.,0.,0.));
#1142=DIRECTION('',(-1.,0.,0.));
#1143=DIRECTION('',(0.,0.,-1.));
#1144=DIRECTION('center_axis',(0.,0.,-1.));
#1145=DIRECTION('ref_axis',(-1.,0.,0.));
#1146=DIRECTION('',(0.,0.,-1.));
#1147=DIRECTION('center_axis',(-1.,0.,0.));
#1148=DIRECTION('ref_axis',(0.,1.,0.));
#1149=DIRECTION('',(0.,1.,0.));
#1150=DIRECTION('center_axis',(-1.,0.,0.));
#1151=DIRECTION('ref_axis',(0.,1.,0.));
#1152=DIRECTION('',(0.,-1.,0.));
#1153=DIRECTION('center_axis',(-0.922492215844316,-0.38601568842036,0.));
#1154=DIRECTION('ref_axis',(-0.38601568842036,0.922492215844316,0.));
#1155=DIRECTION('',(0.,0.,-1.));
#1156=DIRECTION('',(-0.38601568842036,0.922492215844316,0.));
#1157=DIRECTION('',(0.,0.,1.));
#1158=DIRECTION('center_axis',(0.,0.,-1.));
#1159=DIRECTION('ref_axis',(-1.,0.,0.));
#1160=DIRECTION('',(0.,0.,-1.));
#1161=DIRECTION('center_axis',(0.,0.,1.));
#1162=DIRECTION('ref_axis',(-1.,0.,0.));
#1163=DIRECTION('center_axis',(0.,-1.,0.));
#1164=DIRECTION('ref_axis',(-1.,0.,0.));
#1165=DIRECTION('',(0.,0.,-1.));
#1166=DIRECTION('',(-1.,0.,0.));
#1167=DIRECTION('center_axis',(0.,0.,-1.));
#1168=DIRECTION('ref_axis',(-1.,0.,0.));
#1169=DIRECTION('center_axis',(0.,0.,-1.));
#1170=DIRECTION('ref_axis',(-1.,0.,0.));
#1171=DIRECTION('',(0.,0.,-1.));
#1172=DIRECTION('center_axis',(0.,0.,-1.));
#1173=DIRECTION('ref_axis',(-1.,0.,0.));
#1174=DIRECTION('center_axis',(0.,0.,-1.));
#1175=DIRECTION('ref_axis',(0.951041829266363,-0.309062192747173,0.));
#1176=DIRECTION('center_axis',(0.,0.,-1.));
#1177=DIRECTION('ref_axis',(0.951041829266363,-0.309062192747173,0.));
#1178=DIRECTION('',(0.,0.,-1.));
#1179=DIRECTION('center_axis',(0.,0.,1.));
#1180=DIRECTION('ref_axis',(0.951041829266363,-0.309062192747173,0.));
#1181=DIRECTION('',(0.,0.,-1.));
#1182=DIRECTION('center_axis',(0.,0.,1.));
#1183=DIRECTION('ref_axis',(-1.,0.,0.));
#1184=DIRECTION('',(0.,1.,0.));
#1185=DIRECTION('',(-0.587862146294689,-0.808961122028619,0.));
#1186=DIRECTION('center_axis',(0.,0.,1.));
#1187=DIRECTION('ref_axis',(-1.,0.,0.));
#1188=DIRECTION('',(0.587862146294689,0.808961122028619,0.));
#1189=DIRECTION('center_axis',(0.,0.,1.));
#1190=DIRECTION('ref_axis',(-0.453948154366394,0.891028098966213,0.));
#1191=DIRECTION('center_axis',(-1.,0.,0.));
#1192=DIRECTION('ref_axis',(0.,1.,0.));
#1193=DIRECTION('',(0.,-1.,0.));
#1194=DIRECTION('center_axis',(0.,0.,1.));
#1195=DIRECTION('ref_axis',(-0.453948154366394,0.891028098966213,0.));
#1196=DIRECTION('center_axis',(0.,0.,-1.));
#1197=DIRECTION('ref_axis',(-0.453948154366394,0.891028098966213,0.));
#1198=DIRECTION('',(0.,0.,1.));
#1199=DIRECTION('',(0.,0.,-1.));
#1200=DIRECTION('center_axis',(0.808961122028619,-0.587862146294689,0.));
#1201=DIRECTION('ref_axis',(0.587862146294689,0.808961122028619,0.));
#1202=DIRECTION('',(0.587862146294689,0.808961122028619,0.));
#1203=DIRECTION('',(0.,0.,-1.));
#1204=DIRECTION('center_axis',(0.,0.,-1.));
#1205=DIRECTION('ref_axis',(-0.173792227972997,-0.984782342193534,0.));
#1206=DIRECTION('center_axis',(0.,0.,1.));
#1207=DIRECTION('ref_axis',(-0.173792227972997,-0.984782342193534,0.));
#1208=DIRECTION('',(0.,0.,-1.));
#1209=DIRECTION('center_axis',(-0.808961122028619,0.587862146294689,0.));
#1210=DIRECTION('ref_axis',(-0.587862146294689,-0.808961122028619,0.));
#1211=DIRECTION('',(-0.587862146294689,-0.808961122028619,0.));
#1212=DIRECTION('center_axis',(0.,-1.,0.));
#1213=DIRECTION('ref_axis',(-1.,0.,0.));
#1214=DIRECTION('',(1.,0.,0.));
#1215=DIRECTION('',(0.,0.,-1.));
#1216=DIRECTION('',(1.,0.,0.));
#1217=DIRECTION('',(0.707106781186548,0.,0.707106781186548));
#1218=DIRECTION('center_axis',(0.461576338628725,0.887100492401002,0.));
#1219=DIRECTION('ref_axis',(-0.887100492401002,0.461576338628725,0.));
#1220=DIRECTION('',(-0.887100492401002,0.461576338628725,0.));
#1221=DIRECTION('',(0.,0.,1.));
#1222=DIRECTION('',(-0.887100492401002,0.461576338628725,0.));
#1223=DIRECTION('',(0.,0.,1.));
#1224=DIRECTION('center_axis',(1.,0.,0.));
#1225=DIRECTION('ref_axis',(0.,-1.,0.));
#1226=DIRECTION('',(0.,1.,0.));
#1227=DIRECTION('',(0.,0.,-1.));
#1228=DIRECTION('',(0.,-1.,0.));
#1229=DIRECTION('center_axis',(0.,0.,-1.));
#1230=DIRECTION('ref_axis',(0.707106781186547,0.707106781186547,0.));
#1231=DIRECTION('center_axis',(0.,0.,1.));
#1232=DIRECTION('ref_axis',(0.707106781186547,0.707106781186547,0.));
#1233=DIRECTION('',(0.,0.,1.));
#1234=DIRECTION('center_axis',(0.,0.,-1.));
#1235=DIRECTION('ref_axis',(0.707106781186547,0.707106781186547,0.));
#1236=DIRECTION('center_axis',(0.,1.,0.));
#1237=DIRECTION('ref_axis',(1.,0.,0.));
#1238=DIRECTION('',(-1.,0.,0.));
#1239=DIRECTION('',(-0.707106781186548,0.,-0.707106781186548));
#1240=DIRECTION('',(1.,0.,0.));
#1241=DIRECTION('center_axis',(-0.707106781186548,0.,0.707106781186548));
#1242=DIRECTION('ref_axis',(0.707106781186548,0.,0.707106781186548));
#1243=DIRECTION('',(0.,-1.,0.));
#1244=DIRECTION('',(0.,-1.,0.));
#1245=DIRECTION('center_axis',(0.,0.,1.));
#1246=DIRECTION('ref_axis',(-1.,0.,0.));
#1247=DIRECTION('center_axis',(0.,0.,-1.));
#1248=DIRECTION('ref_axis',(0.707106781186544,-0.707106781186551,0.));
#1249=DIRECTION('',(0.,-1.,0.));
#1250=DIRECTION('center_axis',(0.,0.,1.));
#1251=DIRECTION('ref_axis',(-0.518856271703095,0.854861491303921,0.));
#1252=DIRECTION('',(0.887100492401002,-0.461576338628726,0.));
#1253=DIRECTION('center_axis',(0.,0.,1.));
#1254=DIRECTION('ref_axis',(-1.,-1.42108547418611E-13,0.));
#1255=DIRECTION('center_axis',(0.,0.,-1.));
#1256=DIRECTION('ref_axis',(-1.,0.,0.));
#1257=DIRECTION('center_axis',(0.,0.,-1.));
#1258=DIRECTION('ref_axis',(0.707106781186544,-0.707106781186551,0.));
#1259=DIRECTION('center_axis',(0.,0.,1.));
#1260=DIRECTION('ref_axis',(0.707106781186544,-0.707106781186551,0.));
#1261=DIRECTION('',(0.,0.,1.));
#1262=DIRECTION('center_axis',(1.,0.,0.));
#1263=DIRECTION('ref_axis',(0.,-1.,0.));
#1264=DIRECTION('',(0.,1.,0.));
#1265=DIRECTION('',(0.,0.,-1.));
#1266=DIRECTION('center_axis',(0.,0.,-1.));
#1267=DIRECTION('ref_axis',(-0.518856271703095,0.854861491303921,0.));
#1268=DIRECTION('center_axis',(0.,0.,-1.));
#1269=DIRECTION('ref_axis',(-0.518856271703095,0.854861491303921,0.));
#1270=DIRECTION('',(0.,0.,-1.));
#1271=DIRECTION('center_axis',(0.,0.,-1.));
#1272=DIRECTION('ref_axis',(-1.,0.,0.));
#1273=DIRECTION('',(0.,0.,-1.));
#1274=DIRECTION('center_axis',(0.,0.,-1.));
#1275=DIRECTION('ref_axis',(-1.,0.,0.));
#1276=DIRECTION('center_axis',(-0.461576338628726,-0.887100492401002,0.));
#1277=DIRECTION('ref_axis',(0.887100492401002,-0.461576338628726,0.));
#1278=DIRECTION('',(0.887100492401002,-0.461576338628726,0.));
#1279=DIRECTION('',(0.,0.,-1.));
#1280=DIRECTION('center_axis',(0.,0.,-1.));
#1281=DIRECTION('ref_axis',(0.887100492401002,-0.461576338628725,0.));
#1282=DIRECTION('center_axis',(0.,0.,1.));
#1283=DIRECTION('ref_axis',(-1.,3.22973970800047E-15,0.));
#1284=DIRECTION('center_axis',(-0.707106781186548,0.,0.707106781186548));
#1285=DIRECTION('ref_axis',(0.707106781186548,0.,0.707106781186548));
#1286=DIRECTION('',(0.707106781186548,3.52153599923443E-17,0.707106781186548));
#1287=DIRECTION('',(0.,-1.,0.));
#1288=DIRECTION('',(-0.707106781186548,0.,-0.707106781186548));
#1289=DIRECTION('center_axis',(4.98020397050242E-17,-1.,0.));
#1290=DIRECTION('ref_axis',(-1.,-4.98020397050242E-17,0.));
#1291=DIRECTION('',(1.,4.98020397050242E-17,0.));
#1292=DIRECTION('',(0.,0.,-1.));
#1293=DIRECTION('',(-1.,-4.98020397050242E-17,0.));
#1294=DIRECTION('center_axis',(0.,0.,1.));
#1295=DIRECTION('ref_axis',(-1.,0.,0.));
#1296=DIRECTION('',(-1.,0.,0.));
#1297=DIRECTION('center_axis',(0.,0.,1.));
#1298=DIRECTION('ref_axis',(0.707106781186546,0.707106781186549,0.));
#1299=DIRECTION('',(0.,1.,0.));
#1300=DIRECTION('center_axis',(0.,0.,-1.));
#1301=DIRECTION('ref_axis',(-0.90379301626897,-0.427969839759108,0.));
#1302=DIRECTION('',(-0.773592304696065,0.633683632513126,0.));
#1303=DIRECTION('center_axis',(0.,0.,1.));
#1304=DIRECTION('ref_axis',(-0.633683632513125,-0.773592304696065,0.));
#1305=DIRECTION('',(0.773592304696065,-0.633683632513126,0.));
#1306=DIRECTION('center_axis',(0.,0.,-1.));
#1307=DIRECTION('ref_axis',(0.336457794755847,0.941698546429818,0.));
#1308=DIRECTION('center_axis',(0.,0.,-1.));
#1309=DIRECTION('ref_axis',(-1.,0.,0.));
#1310=DIRECTION('center_axis',(0.,0.,-1.));
#1311=DIRECTION('ref_axis',(0.336457794755847,0.941698546429818,0.));
#1312=DIRECTION('',(0.,0.,-1.));
#1313=DIRECTION('center_axis',(0.,0.,1.));
#1314=DIRECTION('ref_axis',(0.336457794755847,0.941698546429818,0.));
#1315=DIRECTION('center_axis',(-0.633683632513126,-0.773592304696065,0.));
#1316=DIRECTION('ref_axis',(0.773592304696065,-0.633683632513126,0.));
#1317=DIRECTION('',(0.,0.,-1.));
#1318=DIRECTION('',(0.773592304696065,-0.633683632513126,0.));
#1319=DIRECTION('center_axis',(0.,0.,1.));
#1320=DIRECTION('ref_axis',(-0.633683632513125,-0.773592304696065,0.));
#1321=DIRECTION('',(0.,0.,1.));
#1322=DIRECTION('center_axis',(0.,0.,1.));
#1323=DIRECTION('ref_axis',(-0.633683632513125,-0.773592304696065,0.));
#1324=DIRECTION('center_axis',(0.633683632513126,0.773592304696065,0.));
#1325=DIRECTION('ref_axis',(-0.773592304696065,0.633683632513126,0.));
#1326=DIRECTION('',(0.,0.,-1.));
#1327=DIRECTION('',(-0.773592304696065,0.633683632513126,0.));
#1328=DIRECTION('center_axis',(0.,0.,1.));
#1329=DIRECTION('ref_axis',(-0.90379301626897,-0.427969839759108,0.));
#1330=DIRECTION('',(0.,0.,1.));
#1331=DIRECTION('center_axis',(0.,0.,1.));
#1332=DIRECTION('ref_axis',(-0.90379301626897,-0.427969839759108,0.));
#1333=DIRECTION('center_axis',(0.,0.,1.));
#1334=DIRECTION('ref_axis',(-1.,0.,0.));
#1335=DIRECTION('',(0.,-1.,0.));
#1336=DIRECTION('center_axis',(0.,0.,-1.));
#1337=DIRECTION('ref_axis',(0.707106781186546,0.707106781186549,0.));
#1338=DIRECTION('',(-1.,0.,0.));
#1339=DIRECTION('center_axis',(0.,0.,-1.));
#1340=DIRECTION('ref_axis',(-1.,0.,0.));
#1341=DIRECTION('center_axis',(1.,0.,0.));
#1342=DIRECTION('ref_axis',(0.,-1.,0.));
#1343=DIRECTION('',(0.,0.,-1.));
#1344=DIRECTION('center_axis',(0.,0.,-1.));
#1345=DIRECTION('ref_axis',(0.707106781186546,0.707106781186549,0.));
#1346=DIRECTION('',(0.,0.,1.));
#1347=DIRECTION('center_axis',(0.,0.,-1.));
#1348=DIRECTION('ref_axis',(-1.,0.,0.));
#1349=DIRECTION('',(0.,0.,-1.));
#1350=DIRECTION('center_axis',(0.,1.,0.));
#1351=DIRECTION('ref_axis',(1.,0.,0.));
#1352=CARTESIAN_POINT('',(0.,0.,0.));
#1353=CARTESIAN_POINT('Origin',(13.8627514342044,-9.4078053511998,22.5));
#1354=CARTESIAN_POINT('',(13.8627514342044,-0.172842129206625,22.5));
#1355=CARTESIAN_POINT('',(13.8627514342044,-0.172842129206625,22.7));
#1356=CARTESIAN_POINT('',(13.8627514342044,-0.172842129206625,23.75));
#1357=CARTESIAN_POINT('',(13.8627514342044,10.1504523417336,22.5));
#1358=CARTESIAN_POINT('',(13.8627514342044,-9.4078053511998,22.5));
#1359=CARTESIAN_POINT('',(13.8627514342044,10.1504523417336,22.7));
#1360=CARTESIAN_POINT('',(13.8627514342044,10.1504523417336,23.75));
#1361=CARTESIAN_POINT('',(13.8627514342044,-9.4078053511998,22.7));
#1362=CARTESIAN_POINT('Origin',(13.8627514342044,40.3362397335813,22.5));
#1363=CARTESIAN_POINT('',(13.3832506304276,40.3362397335813,22.5));
#1364=CARTESIAN_POINT('',(13.5832506304276,40.3362397335813,22.7));
#1365=CARTESIAN_POINT('',(14.1281258313718,40.3362397335813,23.2448752009442));
#1366=CARTESIAN_POINT('',(-12.5385290609885,40.3362397335813,22.5));
#1367=CARTESIAN_POINT('',(13.8627514342044,40.3362397335813,22.5));
#1368=CARTESIAN_POINT('',(-12.5385290609885,40.3362397335813,22.7));
#1369=CARTESIAN_POINT('',(-12.5385290609885,40.3362397335813,23.75));
#1370=CARTESIAN_POINT('',(13.8627514342044,40.3362397335813,22.7));
#1371=CARTESIAN_POINT('Origin',(-2.79377703899142,15.4642171911908,22.7));
#1372=CARTESIAN_POINT('',(13.5832506304276,-0.172842129206625,22.7));
#1373=CARTESIAN_POINT('',(13.5832506304276,-9.4078053511998,22.7));
#1374=CARTESIAN_POINT('',(13.5832506304276,21.6935799543021,22.7));
#1375=CARTESIAN_POINT('',(6.54473679571811,-0.172842129206625,22.7));
#1376=CARTESIAN_POINT('',(13.5832506304276,10.1504523417336,22.7));
#1377=CARTESIAN_POINT('',(11.1706806932491,10.1504523417336,22.7));
#1378=CARTESIAN_POINT('',(13.5832506304276,21.6935799543021,22.7));
#1379=CARTESIAN_POINT('',(-12.5385290609885,36.5266700712869,22.7));
#1380=CARTESIAN_POINT('',(-12.5385290609885,25.9954436312388,22.7));
#1381=CARTESIAN_POINT('',(-15.5385290609885,33.5266700712869,22.7));
#1382=CARTESIAN_POINT('Origin',(-15.5385290609885,36.5266700712869,22.7));
#1383=CARTESIAN_POINT('',(-19.3658604333072,33.5266700712869,22.7));
#1384=CARTESIAN_POINT('',(-11.1220412755893,33.5266700712869,22.7));
#1385=CARTESIAN_POINT('',(-19.4503055121872,-2.47332992871306,22.7));
#1386=CARTESIAN_POINT('',(-19.3651427816862,33.8326139901042,22.7));
#1387=CARTESIAN_POINT('',(-15.5385290609898,-2.47332992871306,22.7));
#1388=CARTESIAN_POINT('',(-9.16615304999062,-2.47332992871306,22.7));
#1389=CARTESIAN_POINT('',(-12.9454223438492,-3.96475525256343,22.7));
#1390=CARTESIAN_POINT('Origin',(-15.5385290609898,-5.47332992871306,22.7));
#1391=CARTESIAN_POINT('',(-10.6677849883853,-9.4078053511998,22.7));
#1392=CARTESIAN_POINT('',(-14.5095591470498,-0.226813845640707,22.7));
#1393=CARTESIAN_POINT('',(-10.6677849883853,-9.4078053511998,22.7));
#1394=CARTESIAN_POINT('Origin',(-19.3651427816862,33.8326139901042,22.5));
#1395=CARTESIAN_POINT('',(-19.3658604333072,33.5266700712869,22.5));
#1396=CARTESIAN_POINT('',(-19.3658604333072,33.5266700712869,23.75));
#1397=CARTESIAN_POINT('',(-19.4503055121872,-2.47332992871306,22.5));
#1398=CARTESIAN_POINT('',(-19.3651427816862,33.8326139901042,22.5));
#1399=CARTESIAN_POINT('',(-19.4503055121872,-2.47332992871306,25.));
#1400=CARTESIAN_POINT('Origin',(-19.4503055121872,33.5266700712869,25.));
#1401=CARTESIAN_POINT('',(-15.5385290609885,33.5266700712869,25.));
#1402=CARTESIAN_POINT('',(-15.5385290609885,33.5266700712869,25.));
#1403=CARTESIAN_POINT('',(-19.4503055121872,33.5266700712869,25.));
#1404=CARTESIAN_POINT('',(-17.4944172865879,33.5266700712869,25.));
#1405=CARTESIAN_POINT('',(-19.4503055121872,33.5266700712869,22.5));
#1406=CARTESIAN_POINT('',(-19.4503055121872,33.5266700712869,25.));
#1407=CARTESIAN_POINT('',(-15.5385290609885,33.5266700712869,22.5));
#1408=CARTESIAN_POINT('Origin',(-15.5385290609885,36.5266700712869,18.));
#1409=CARTESIAN_POINT('',(-14.0385290609885,36.5266700712869,25.));
#1410=CARTESIAN_POINT('Origin',(-15.5385290609885,36.5266700712869,25.));
#1411=CARTESIAN_POINT('',(-14.0385290609885,36.5266700712869,22.5));
#1412=CARTESIAN_POINT('',(-14.0385290609885,36.5266700712869,18.));
#1413=CARTESIAN_POINT('Origin',(-15.5385290609885,36.5266700712869,22.5));
#1414=CARTESIAN_POINT('Origin',(-16.9503055121872,37.8665254069511,25.));
#1415=CARTESIAN_POINT('',(-16.9503055121872,40.3665254069511,22.5));
#1416=CARTESIAN_POINT('',(-19.4503055121872,37.8665254069511,22.5));
#1417=CARTESIAN_POINT('Origin',(-16.9503055121872,37.8665254069511,22.5));
#1418=CARTESIAN_POINT('',(-19.4503055121872,37.8665254069511,25.));
#1419=CARTESIAN_POINT('',(-19.4503055121872,37.8665254069511,25.));
#1420=CARTESIAN_POINT('',(-16.9503055121872,40.3665254069511,25.));
#1421=CARTESIAN_POINT('Origin',(-16.9503055121872,37.8665254069511,25.));
#1422=CARTESIAN_POINT('',(-16.9503055121872,40.3665254069511,25.));
#1423=CARTESIAN_POINT('Origin',(-15.5385290609885,36.5266700712869,25.));
#1424=CARTESIAN_POINT('',(-12.5385290609885,36.5266700712869,25.));
#1425=CARTESIAN_POINT('Origin',(-15.5385290609885,36.5266700712869,25.));
#1426=CARTESIAN_POINT('',(-12.5385290609885,40.3665254069511,25.));
#1427=CARTESIAN_POINT('',(-12.5385290609885,36.5266700712869,25.));
#1428=CARTESIAN_POINT('',(-19.4503055121872,40.3665254069511,25.));
#1429=CARTESIAN_POINT('',(-19.4503055121872,-9.4078053511998,25.));
#1430=CARTESIAN_POINT('Origin',(-19.4503055121872,40.3665254069511,25.));
#1431=CARTESIAN_POINT('',(-12.5385290609885,40.3665254069511,22.5));
#1432=CARTESIAN_POINT('',(-10.6169164765335,40.3665254069511,22.5));
#1433=CARTESIAN_POINT('',(-12.5385290609885,40.3665254069511,25.));
#1434=CARTESIAN_POINT('Origin',(-15.5385290609885,36.5266700712869,25.));
#1435=CARTESIAN_POINT('',(-12.5385290609885,36.5266700712869,25.));
#1436=CARTESIAN_POINT('Origin',(-12.5385290609885,36.5266700712869,25.));
#1437=CARTESIAN_POINT('',(-12.5385290609885,36.5266700712869,22.5));
#1438=CARTESIAN_POINT('Origin',(-19.4503055121872,-9.4078053511998,25.));
#1439=CARTESIAN_POINT('',(-19.4503055121872,3.03577733833792,22.5));
#1440=CARTESIAN_POINT('Origin',(-10.6677849883853,-9.4078053511998,25.));
#1441=CARTESIAN_POINT('',(-12.9454223438492,-3.96475525256343,25.));
#1442=CARTESIAN_POINT('',(-12.9454223438492,-3.96475525256343,25.));
#1443=CARTESIAN_POINT('',(-10.6677849883853,-9.4078053511998,25.));
#1444=CARTESIAN_POINT('',(-19.2092274000318,11.0043550173858,25.));
#1445=CARTESIAN_POINT('',(-10.6677849883853,-9.4078053511998,23.5));
#1446=CARTESIAN_POINT('Origin',(-15.5385290609898,-5.47332992871306,25.));
#1447=CARTESIAN_POINT('',(-15.5385290609898,-2.47332992871306,25.));
#1448=CARTESIAN_POINT('',(-15.5385290609898,-2.47332992871306,25.));
#1449=CARTESIAN_POINT('Origin',(-15.5385290609898,-5.47332992871306,25.));
#1450=CARTESIAN_POINT('Origin',(-15.5385290609898,-2.47332992871306,25.));
#1451=CARTESIAN_POINT('',(-19.4503055121872,-2.47332992871306,25.));
#1452=CARTESIAN_POINT('',(-19.4503055121872,-2.47332992871306,25.));
#1453=CARTESIAN_POINT('',(-15.5385290609892,-2.47332992871306,25.));
#1454=CARTESIAN_POINT('Origin',(-15.5385290609898,-5.47332992871306,25.));
#1455=CARTESIAN_POINT('',(-14.0385290609898,-5.47332992871306,25.));
#1456=CARTESIAN_POINT('Origin',(-15.5385290609898,-5.47332992871306,25.));
#1457=CARTESIAN_POINT('',(-14.0385290609898,-5.47332992871306,22.5));
#1458=CARTESIAN_POINT('',(-14.0385290609898,-5.47332992871306,25.));
#1459=CARTESIAN_POINT('Origin',(-15.5385290609898,-5.47332992871306,22.5));
#1460=CARTESIAN_POINT('Origin',(-27.9503055121872,-3.4161207627656,23.5));
#1461=CARTESIAN_POINT('',(-19.4503055121872,-3.4161207627656,22.5));
#1462=CARTESIAN_POINT('',(-21.0741359749439,-8.41294900627045,22.5));
#1463=CARTESIAN_POINT('Origin',(-27.9503055121872,-3.4161207627656,22.5));
#1464=CARTESIAN_POINT('',(-21.0741359749439,-8.41294900627045,25.));
#1465=CARTESIAN_POINT('',(-21.0741359749439,-8.41294900627045,22.));
#1466=CARTESIAN_POINT('',(-19.4503055121872,-3.4161207627656,25.));
#1467=CARTESIAN_POINT('Origin',(-27.9503055121872,-3.4161207627656,25.));
#1468=CARTESIAN_POINT('',(-19.4503055121872,-3.4161207627656,23.5));
#1469=CARTESIAN_POINT('Origin',(-15.5385290609885,36.5266700712869,25.));
#1470=CARTESIAN_POINT('',(-19.4503055121872,-9.4078053511998,25.));
#1471=CARTESIAN_POINT('',(-32.7239543489334,-24.4443437859028,25.));
#1472=CARTESIAN_POINT('',(-17.7631721465685,-3.85670902640266,25.));
#1473=CARTESIAN_POINT('',(-28.274668177776,-27.6775855905236,25.));
#1474=CARTESIAN_POINT('Origin',(-30.4993112633547,-26.0609646882132,25.));
#1475=CARTESIAN_POINT('',(-17.5439545256286,-12.9109771076949,25.));
#1476=CARTESIAN_POINT('',(-28.274668177776,-27.6775855905236,25.));
#1477=CARTESIAN_POINT('Origin',(-10.6677849883853,-17.9078053511998,25.));
#1478=CARTESIAN_POINT('Origin',(-19.4503055121872,-9.4078053511998,25.));
#1479=CARTESIAN_POINT('',(-19.4503055121872,3.03577733833792,22.5));
#1480=CARTESIAN_POINT('Origin',(-10.6677849883853,-17.9078053511998,23.5));
#1481=CARTESIAN_POINT('',(-17.5439545256286,-12.9109771076949,22.5));
#1482=CARTESIAN_POINT('',(-10.6677849883853,-9.4078053511998,22.5));
#1483=CARTESIAN_POINT('Origin',(-10.6677849883853,-17.9078053511998,22.5));
#1484=CARTESIAN_POINT('',(-10.6677849883853,-9.4078053511998,23.5));
#1485=CARTESIAN_POINT('',(-17.5439545256286,-12.9109771076949,23.5));
#1486=CARTESIAN_POINT('Origin',(-28.274668177776,-27.6775855905236,22.));
#1487=CARTESIAN_POINT('',(-28.274668177776,-27.6775855905236,22.5));
#1488=CARTESIAN_POINT('',(-13.4354315589316,-7.25721054019529,22.5));
#1489=CARTESIAN_POINT('',(-28.274668177776,-27.6775855905236,5.00000000000001));
#1490=CARTESIAN_POINT('Origin',(-30.4993112633547,-26.0609646882132,5.00000000000001));
#1491=CARTESIAN_POINT('',(-32.7239543489334,-24.4443437859028,22.5));
#1492=CARTESIAN_POINT('Origin',(-30.4993112633547,-26.0609646882132,22.5));
#1493=CARTESIAN_POINT('',(-32.7239543489334,-24.4443437859028,5.00000000000001));
#1494=CARTESIAN_POINT('Origin',(-17.7631721465685,-3.85670902640266,22.));
#1495=CARTESIAN_POINT('',(-10.4043266289066,6.26984864417558,22.5));
#1496=CARTESIAN_POINT('Origin',(25.1351384254896,10.1504523417336,25.));
#1497=CARTESIAN_POINT('',(24.6351384254896,10.1504523417336,22.5));
#1498=CARTESIAN_POINT('',(11.6758054923049,10.1504523417336,22.5));
#1499=CARTESIAN_POINT('',(24.6351384254896,10.1504523417336,25.));
#1500=CARTESIAN_POINT('',(24.6351384254896,10.1504523417336,25.));
#1501=CARTESIAN_POINT('',(15.8832506304276,10.1504523417336,25.));
#1502=CARTESIAN_POINT('',(15.8832506304276,10.1504523417336,25.));
#1503=CARTESIAN_POINT('',(17.5712225791931,10.1504523417336,26.6879719487655));
#1504=CARTESIAN_POINT('Origin',(32.6168633582498,33.8222806482279,22.));
#1505=CARTESIAN_POINT('',(32.6168633582498,33.8222806482279,22.5));
#1506=CARTESIAN_POINT('',(25.1351384254896,37.7151735399271,22.5));
#1507=CARTESIAN_POINT('',(22.836604613221,38.9111471983452,22.5));
#1508=CARTESIAN_POINT('',(25.1351384254896,37.7151735399271,25.));
#1509=CARTESIAN_POINT('',(25.1351384254896,37.7151735399271,23.5));
#1510=CARTESIAN_POINT('',(32.6168633582498,33.8222806482279,25.));
#1511=CARTESIAN_POINT('',(32.6168633582498,33.8222806482279,25.));
#1512=CARTESIAN_POINT('',(32.6168633582498,33.8222806482279,22.));
#1513=CARTESIAN_POINT('Origin',(25.1351384254896,40.3665254069511,25.));
#1514=CARTESIAN_POINT('',(25.1351384254896,37.8665254069511,22.5));
#1515=CARTESIAN_POINT('',(25.1351384254896,27.9229427174134,22.5));
#1516=CARTESIAN_POINT('',(25.1351384254896,37.8665254069511,25.));
#1517=CARTESIAN_POINT('',(25.1351384254896,37.8665254069511,25.));
#1518=CARTESIAN_POINT('',(25.1351384254896,40.3665254069511,25.));
#1519=CARTESIAN_POINT('Origin',(22.6351384254896,37.8665254069511,25.));
#1520=CARTESIAN_POINT('',(22.6351384254896,40.3665254069511,22.5));
#1521=CARTESIAN_POINT('Origin',(22.6351384254896,37.8665254069511,22.5));
#1522=CARTESIAN_POINT('',(22.6351384254897,40.3665254069511,25.));
#1523=CARTESIAN_POINT('',(22.6351384254896,40.3665254069511,25.));
#1524=CARTESIAN_POINT('Origin',(22.6351384254896,37.8665254069511,25.));
#1525=CARTESIAN_POINT('Origin',(-19.4503055121872,40.3665254069511,25.));
#1526=CARTESIAN_POINT('',(13.3832506304276,40.3665254069511,22.5));
#1527=CARTESIAN_POINT('',(-10.6169164765335,40.3665254069511,22.5));
#1528=CARTESIAN_POINT('',(15.8832506304276,40.3665254069511,25.));
#1529=CARTESIAN_POINT('',(6.42486159477393,40.3665254069511,15.5416109643463));
#1530=CARTESIAN_POINT('',(-19.4503055121872,40.3665254069511,25.));
#1531=CARTESIAN_POINT('Origin',(14.6332506304276,27.9229427174134,23.75));
#1532=CARTESIAN_POINT('',(15.8832506304276,38.446597739119,25.));
#1533=CARTESIAN_POINT('',(13.3832506304276,27.9229427174134,22.5));
#1534=CARTESIAN_POINT('Origin',(-15.5385290609885,36.5266700712869,25.));
#1535=CARTESIAN_POINT('',(25.1351384254896,10.6504523417336,25.));
#1536=CARTESIAN_POINT('Origin',(24.6351384254896,10.6504523417336,25.));
#1537=CARTESIAN_POINT('',(25.1351384254896,26.5724348078896,25.));
#1538=CARTESIAN_POINT('',(25.1351384254896,40.3665254069511,25.));
#1539=CARTESIAN_POINT('',(29.5198674413758,29.2337362850926,25.));
#1540=CARTESIAN_POINT('Origin',(28.1351384254896,26.5724348078896,25.));
#1541=CARTESIAN_POINT('',(30.078193498173,28.9432279445989,25.));
#1542=CARTESIAN_POINT('',(20.1921360077825,34.087143717183,25.));
#1543=CARTESIAN_POINT('Origin',(31.3475284270208,31.3827542941252,25.));
#1544=CARTESIAN_POINT('',(22.9614709390115,36.5266700712858,25.));
#1545=CARTESIAN_POINT('Origin',(21.4614709390115,36.5266700712858,25.));
#1546=CARTESIAN_POINT('Origin',(24.6351384254896,10.6504523417336,25.));
#1547=CARTESIAN_POINT('',(25.1351384254896,10.6504523417336,22.5));
#1548=CARTESIAN_POINT('Origin',(24.6351384254896,10.6504523417336,22.5));
#1549=CARTESIAN_POINT('',(25.1351384254896,10.6504523417336,25.));
#1550=CARTESIAN_POINT('Origin',(25.1351384254896,40.3665254069511,25.));
#1551=CARTESIAN_POINT('',(25.1351384254896,26.5724348078896,22.5));
#1552=CARTESIAN_POINT('',(25.1351384254896,27.9229427174134,22.5));
#1553=CARTESIAN_POINT('',(25.1351384254896,26.5724348078896,23.5));
#1554=CARTESIAN_POINT('Origin',(28.1351384254896,26.5724348078896,23.5));
#1555=CARTESIAN_POINT('',(29.5198674413758,29.2337362850926,22.5));
#1556=CARTESIAN_POINT('Origin',(28.1351384254896,26.5724348078896,22.5));
#1557=CARTESIAN_POINT('',(29.5198674413758,29.2337362850926,22.));
#1558=CARTESIAN_POINT('Origin',(21.4614709390115,36.5266700712858,25.));
#1559=CARTESIAN_POINT('',(22.9614709390115,36.5266700712858,22.5));
#1560=CARTESIAN_POINT('',(22.9614709390115,36.5266700712858,25.));
#1561=CARTESIAN_POINT('Origin',(21.4614709390115,36.5266700712858,22.5));
#1562=CARTESIAN_POINT('Origin',(20.1921360077825,34.087143717183,22.));
#1563=CARTESIAN_POINT('',(30.0781934957918,28.9432279400224,22.5));
#1564=CARTESIAN_POINT('',(15.3549060067583,36.6040523787199,22.5));
#1565=CARTESIAN_POINT('',(30.0781934957918,28.9432279400224,5.00000000000001));
#1566=CARTESIAN_POINT('Origin',(31.3475284270208,31.3827542941252,5.00000000000001));
#1567=CARTESIAN_POINT('Origin',(31.3475284270208,31.3827542941252,22.5));
#1568=CARTESIAN_POINT('Origin',(14.6332506304276,27.9229427174134,23.75));
#1569=CARTESIAN_POINT('',(15.8832506304276,-9.4078053511998,25.));
#1570=CARTESIAN_POINT('',(17.5712225791931,-9.4078053511998,26.6879719487655));
#1571=CARTESIAN_POINT('',(15.8832506304276,-0.172842129206625,25.));
#1572=CARTESIAN_POINT('',(15.8832506304276,38.446597739119,25.));
#1573=CARTESIAN_POINT('',(15.2582506304276,-0.172842129206625,24.375));
#1574=CARTESIAN_POINT('Origin',(25.1351384254896,-9.4078053511998,25.));
#1575=CARTESIAN_POINT('',(18.8879698786068,-9.4078053511998,22.5));
#1576=CARTESIAN_POINT('',(11.6758054923049,-9.4078053511998,22.5));
#1577=CARTESIAN_POINT('',(18.8879698786068,-9.4078053511998,25.));
#1578=CARTESIAN_POINT('',(18.8879698786068,-9.4078053511998,23.5));
#1579=CARTESIAN_POINT('',(25.1351384254896,-9.4078053511998,25.));
#1580=CARTESIAN_POINT('Origin',(-1.78352744087978,15.4793600278756,22.5));
#1581=CARTESIAN_POINT('',(24.6351384254896,-0.172842129206625,22.5));
#1582=CARTESIAN_POINT('',(7.04986159477393,-0.172842129206625,22.5));
#1583=CARTESIAN_POINT('',(25.1351384254896,-0.672842129206625,22.5));
#1584=CARTESIAN_POINT('Origin',(24.6351384254896,-0.672842129206625,22.5));
#1585=CARTESIAN_POINT('',(25.1351384254896,-0.902774941678853,22.5));
#1586=CARTESIAN_POINT('',(25.1351384254896,7.65325894933451,22.5));
#1587=CARTESIAN_POINT('',(28.2488275491281,-7.4783095315954,22.5));
#1588=CARTESIAN_POINT('Origin',(33.6351384254896,-0.902774941678853,22.5));
#1589=CARTESIAN_POINT('',(39.361647199937,-16.5813110493711,22.5));
#1590=CARTESIAN_POINT('',(19.1918086960642,-0.0593052683559359,22.5));
#1591=CARTESIAN_POINT('',(35.8763872211148,-20.8360687251994,22.5));
#1592=CARTESIAN_POINT('Origin',(37.6190172105259,-18.7086898872852,22.5));
#1593=CARTESIAN_POINT('',(24.2742807549684,-11.3322707612833,22.5));
#1594=CARTESIAN_POINT('',(7.62777558148421,2.30361703510123,22.5));
#1595=CARTESIAN_POINT('Origin',(18.8879698786068,-17.9078053511998,22.5));
#1596=CARTESIAN_POINT('',(22.9614709390102,-5.47332992871419,22.5));
#1597=CARTESIAN_POINT('Origin',(21.4614709390102,-5.47332992871419,22.5));
#1598=CARTESIAN_POINT('Origin',(18.8879698786068,-17.9078053511998,23.5));
#1599=CARTESIAN_POINT('',(24.2742807549684,-11.3322707612833,25.));
#1600=CARTESIAN_POINT('',(24.2742807549684,-11.3322707612833,22.));
#1601=CARTESIAN_POINT('Origin',(18.8879698786068,-17.9078053511998,25.));
#1602=CARTESIAN_POINT('Origin',(19.7188409495991,-7.60070876662837,22.));
#1603=CARTESIAN_POINT('',(35.8763872211148,-20.8360687251994,25.));
#1604=CARTESIAN_POINT('',(35.8763872211148,-20.8360687251994,22.));
#1605=CARTESIAN_POINT('',(19.7188409495991,-7.60070876662837,25.));
#1606=CARTESIAN_POINT('Origin',(37.6190172105259,-18.7086898872852,22.));
#1607=CARTESIAN_POINT('',(39.361647199937,-16.5813110493711,25.));
#1608=CARTESIAN_POINT('',(39.361647199937,-16.5813110493711,22.));
#1609=CARTESIAN_POINT('Origin',(37.6190172105259,-18.7086898872852,25.));
#1610=CARTESIAN_POINT('Origin',(39.361647199937,-16.5813110493711,22.));
#1611=CARTESIAN_POINT('',(28.2488275491281,-7.4783095315954,25.));
#1612=CARTESIAN_POINT('',(28.2488275491281,-7.4783095315954,23.5));
#1613=CARTESIAN_POINT('',(39.361647199937,-16.5813110493711,25.));
#1614=CARTESIAN_POINT('Origin',(33.6351384254896,-0.902774941678853,23.5));
#1615=CARTESIAN_POINT('',(25.1351384254896,-0.902774941678853,25.));
#1616=CARTESIAN_POINT('',(25.1351384254896,-0.902774941678853,23.5));
#1617=CARTESIAN_POINT('Origin',(33.6351384254896,-0.902774941678853,25.));
#1618=CARTESIAN_POINT('Origin',(-15.5385290609885,36.5266700712869,25.));
#1619=CARTESIAN_POINT('',(25.1351384254896,-0.672842129206625,25.));
#1620=CARTESIAN_POINT('',(25.1351384254896,-0.172842129206625,25.));
#1621=CARTESIAN_POINT('',(24.6351384254896,-0.172842129206625,25.));
#1622=CARTESIAN_POINT('Origin',(24.6351384254896,-0.672842129206625,25.));
#1623=CARTESIAN_POINT('',(25.1351384254896,-0.172842129206625,25.));
#1624=CARTESIAN_POINT('',(22.9614709390102,-5.47332992871419,25.));
#1625=CARTESIAN_POINT('Origin',(21.4614709390102,-5.47332992871419,25.));
#1626=CARTESIAN_POINT('Origin',(25.1351384254896,-0.172842129206625,25.));
#1627=CARTESIAN_POINT('',(25.1351384254896,-0.672842129206625,25.));
#1628=CARTESIAN_POINT('Origin',(24.6351384254896,-0.672842129206625,25.));
#1629=CARTESIAN_POINT('',(24.6351384254896,-0.172842129206625,25.));
#1630=CARTESIAN_POINT('Origin',(21.4614709390102,-5.47332992871419,25.));
#1631=CARTESIAN_POINT('',(22.9614709390102,-5.47332992871419,25.));
#1632=CARTESIAN_POINT('Origin',(15.8832506304276,-0.172842129206625,25.));
#1633=UNCERTAINTY_MEASURE_WITH_UNIT(LENGTH_MEASURE(0.01),#1637,
'DISTANCE_ACCURACY_VALUE',
'Maximum model space distance between geometric entities at asserted c
onnectivities');
#1634=UNCERTAINTY_MEASURE_WITH_UNIT(LENGTH_MEASURE(0.01),#1637,
'DISTANCE_ACCURACY_VALUE',
'Maximum model space distance between geometric entities at asserted c
onnectivities');
#1635=(
GEOMETRIC_REPRESENTATION_CONTEXT(3)
GLOBAL_UNCERTAINTY_ASSIGNED_CONTEXT((#1633))
GLOBAL_UNIT_ASSIGNED_CONTEXT((#1637,#1639,#1640))
REPRESENTATION_CONTEXT('','3D')
);
#1636=(
GEOMETRIC_REPRESENTATION_CONTEXT(3)
GLOBAL_UNCERTAINTY_ASSIGNED_CONTEXT((#1634))
GLOBAL_UNIT_ASSIGNED_CONTEXT((#1637,#1639,#1640))
REPRESENTATION_CONTEXT('','3D')
);
#1637=(
LENGTH_UNIT()
NAMED_UNIT(*)
SI_UNIT(.MILLI.,.METRE.)
);
#1638=(
LENGTH_UNIT()
NAMED_UNIT(*)
SI_UNIT($,.METRE.)
);
#1639=(
NAMED_UNIT(*)
PLANE_ANGLE_UNIT()
SI_UNIT($,.RADIAN.)
);
#1640=(
NAMED_UNIT(*)
SI_UNIT($,.STERADIAN.)
SOLID_ANGLE_UNIT()
);
#1641=SHAPE_DEFINITION_REPRESENTATION(#1642,#1643);
#1642=PRODUCT_DEFINITION_SHAPE('',$,#1645);
#1643=SHAPE_REPRESENTATION('',(#991),#1635);
#1644=PRODUCT_DEFINITION_CONTEXT('part definition',#1649,'design');
#1645=PRODUCT_DEFINITION('2026-08-25-12-54-36-842','MY-CAM Holder',#1646,
#1644);
#1646=PRODUCT_DEFINITION_FORMATION('',$,#1651);
#1647=PRODUCT_RELATED_PRODUCT_CATEGORY('MY-CAM Holder','MY-CAM Holder',
(#1651));
#1648=APPLICATION_PROTOCOL_DEFINITION('international standard',
'automotive_design',2009,#1649);
#1649=APPLICATION_CONTEXT(
'Core Data for Automotive Mechanical Design Process');
#1650=PRODUCT_CONTEXT('part definition',#1649,'mechanical');
#1651=PRODUCT('2026-08-25-12-54-36-842','MY-CAM Holder',$,(#1650));
#1652=PRESENTATION_STYLE_ASSIGNMENT((#1653));
#1653=SURFACE_STYLE_USAGE(.BOTH.,#1654);
#1654=SURFACE_SIDE_STYLE('',(#1655));
#1655=SURFACE_STYLE_FILL_AREA(#1656);
#1656=FILL_AREA_STYLE('Steel - Satin',(#1657));
#1657=FILL_AREA_STYLE_COLOUR('Steel - Satin',#1658);
#1658=COLOUR_RGB('Steel - Satin',0.627450980392157,0.627450980392157,0.627450980392157);
ENDSEC;
END-ISO-10303-21;
