ISO-10303-21;
HEADER;
/* Generated by software containing ST-Developer
 * from STEP Tools, Inc. (www.steptools.com) 
 */

FILE_DESCRIPTION(
/* description */ (''),
/* implementation_level */ '2;1');

FILE_NAME(
/* name */ 'USB Hub Support.step',
/* time_stamp */ '2026-08-25T07:36:07-05:00',
/* author */ (''),
/* organization */ (''),
/* preprocessor_version */ 'ST-DEVELOPER v20.1',
/* originating_system */ 'Autodesk Translation Framework v15.8.0.0',
/* authorisation */ '');

FILE_SCHEMA (('AUTOMOTIVE_DESIGN { 1 0 10303 214 3 1 1 }'));
ENDSEC;

DATA;
#10=MECHANICAL_DESIGN_GEOMETRIC_PRESENTATION_REPRESENTATION('',(#13),#893);
#11=SHAPE_REPRESENTATION_RELATIONSHIP('SRR','None',#900,#12);
#12=ADVANCED_BREP_SHAPE_REPRESENTATION('',(#14),#892);
#13=STYLED_ITEM('',(#909),#14);
#14=MANIFOLD_SOLID_BREP('Body1',#479);
#15=FACE_BOUND('',#178,.T.);
#16=FACE_BOUND('',#180,.T.);
#17=FACE_BOUND('',#189,.T.);
#18=PLANE('',#502);
#19=PLANE('',#503);
#20=PLANE('',#504);
#21=PLANE('',#512);
#22=PLANE('',#514);
#23=PLANE('',#515);
#24=PLANE('',#516);
#25=PLANE('',#517);
#26=PLANE('',#521);
#27=PLANE('',#522);
#28=PLANE('',#524);
#29=PLANE('',#525);
#30=PLANE('',#526);
#31=PLANE('',#529);
#32=PLANE('',#530);
#33=PLANE('',#531);
#34=PLANE('',#532);
#35=B_SPLINE_CURVE_WITH_KNOTS('',3,(#705,#706,#707,#708),.UNSPECIFIED.,
 .F.,.F.,(4,4),(0.,0.0731912829958661),.UNSPECIFIED.);
#36=B_SPLINE_CURVE_WITH_KNOTS('',3,(#711,#712,#713,#714),.UNSPECIFIED.,
 .F.,.F.,(4,4),(-1.29063426612674E-15,0.0782208299755493),.UNSPECIFIED.);
#37=B_SPLINE_CURVE_WITH_KNOTS('',3,(#736,#737,#738,#739,#740,#741,#742,
#743,#744,#745),.UNSPECIFIED.,.F.,.F.,(4,2,2,2,4),(0.0156584199128012,0.0586212249311494,
0.138581893068227,0.293406745249702,0.40299516453043),.UNSPECIFIED.);
#38=B_SPLINE_CURVE_WITH_KNOTS('',3,(#747,#748,#749,#750),.UNSPECIFIED.,
 .F.,.F.,(4,4),(1.36495964773244,2.22177599027563),.UNSPECIFIED.);
#39=B_SPLINE_CURVE_WITH_KNOTS('',3,(#768,#769,#770,#771,#772,#773,#774,
#775,#776,#777,#778,#779),.UNSPECIFIED.,.F.,.F.,(4,2,2,2,2,4),(0.561764172637083,
0.572649803719315,0.643507833650874,0.7728986284871,0.950679729828869,1.16823400515277),
 .UNSPECIFIED.);
#40=B_SPLINE_CURVE_WITH_KNOTS('',3,(#816,#817,#818,#819),.UNSPECIFIED.,
 .F.,.F.,(4,4),(0.,0.0732403863918925),.UNSPECIFIED.);
#41=B_SPLINE_SURFACE_WITH_KNOTS('',3,3,((#688,#689,#690,#691),(#692,#693,
#694,#695),(#696,#697,#698,#699),(#700,#701,#702,#703)),.UNSPECIFIED.,.F.,
 .F.,.F.,(4,4),(4,4),(0.,1.),(-1.29063426612674E-15,0.0782208299755493),
 .UNSPECIFIED.);
#42=B_SPLINE_SURFACE_WITH_KNOTS('',3,3,((#719,#720,#721,#722),(#723,#724,
#725,#726),(#727,#728,#729,#730),(#731,#732,#733,#734)),.UNSPECIFIED.,.F.,
 .F.,.F.,(4,4),(4,4),(0.,1.),(1.36495964773244,2.22177599027563),
 .UNSPECIFIED.);
#43=B_SPLINE_SURFACE_WITH_KNOTS('',3,3,((#799,#800,#801,#802),(#803,#804,
#805,#806),(#807,#808,#809,#810),(#811,#812,#813,#814)),.UNSPECIFIED.,.F.,
 .F.,.F.,(4,4),(4,4),(0.,1.),(-3.14159265358979,-3.06358255805009),
 .UNSPECIFIED.);
#44=B_SPLINE_SURFACE_WITH_KNOTS('',3,3,((#827,#828,#829,#830),(#831,#832,
#833,#834),(#835,#836,#837,#838),(#839,#840,#841,#842)),.UNSPECIFIED.,.F.,
 .F.,.F.,(4,4),(4,4),(0.,1.),(-0.856605608105151,4.22829320678052E-13),
 .UNSPECIFIED.);
#45=LINE('',#673,#86);
#46=LINE('',#675,#87);
#47=LINE('',#678,#88);
#48=LINE('',#682,#89);
#49=LINE('',#686,#90);
#50=LINE('',#710,#91);
#51=LINE('',#717,#92);
#52=LINE('',#718,#93);
#53=LINE('',#751,#94);
#54=LINE('',#754,#95);
#55=LINE('',#755,#96);
#56=LINE('',#758,#97);
#57=LINE('',#760,#98);
#58=LINE('',#762,#99);
#59=LINE('',#764,#100);
#60=LINE('',#766,#101);
#61=LINE('',#780,#102);
#62=LINE('',#783,#103);
#63=LINE('',#794,#104);
#64=LINE('',#797,#105);
#65=LINE('',#821,#106);
#66=LINE('',#825,#107);
#67=LINE('',#826,#108);
#68=LINE('',#845,#109);
#69=LINE('',#847,#110);
#70=LINE('',#850,#111);
#71=LINE('',#851,#112);
#72=LINE('',#854,#113);
#73=LINE('',#855,#114);
#74=LINE('',#857,#115);
#75=LINE('',#858,#116);
#76=LINE('',#863,#117);
#77=LINE('',#867,#118);
#78=LINE('',#871,#119);
#79=LINE('',#872,#120);
#80=LINE('',#877,#121);
#81=LINE('',#882,#122);
#82=LINE('',#883,#123);
#83=LINE('',#884,#124);
#84=LINE('',#886,#125);
#85=LINE('',#888,#126);
#86=VECTOR('',#545,2.99947317432487);
#87=VECTOR('',#546,10.);
#88=VECTOR('',#549,10.);
#89=VECTOR('',#552,10.);
#90=VECTOR('',#555,10.);
#91=VECTOR('',#558,10.);
#92=VECTOR('',#561,10.);
#93=VECTOR('',#562,10.);
#94=VECTOR('',#563,10.);
#95=VECTOR('',#566,10.);
#96=VECTOR('',#567,10.);
#97=VECTOR('',#570,10.);
#98=VECTOR('',#571,10.);
#99=VECTOR('',#572,10.);
#100=VECTOR('',#573,10.);
#101=VECTOR('',#574,10.);
#102=VECTOR('',#575,10.);
#103=VECTOR('',#578,10.);
#104=VECTOR('',#585,10.);
#105=VECTOR('',#588,10.);
#106=VECTOR('',#591,10.);
#107=VECTOR('',#596,10.);
#108=VECTOR('',#597,10.);
#109=VECTOR('',#600,10.);
#110=VECTOR('',#603,10.);
#111=VECTOR('',#606,10.);
#112=VECTOR('',#607,10.);
#113=VECTOR('',#610,10.);
#114=VECTOR('',#611,10.);
#115=VECTOR('',#614,10.);
#116=VECTOR('',#615,10.);
#117=VECTOR('',#620,1.5);
#118=VECTOR('',#627,10.);
#119=VECTOR('',#632,10.);
#120=VECTOR('',#633,10.);
#121=VECTOR('',#640,1.65);
#122=VECTOR('',#645,10.);
#123=VECTOR('',#646,10.);
#124=VECTOR('',#647,10.);
#125=VECTOR('',#650,10.);
#126=VECTOR('',#653,10.);
#127=CYLINDRICAL_SURFACE('',#496,2.99947317432487);
#128=CYLINDRICAL_SURFACE('',#505,3.);
#129=CYLINDRICAL_SURFACE('',#518,1.5);
#130=CYLINDRICAL_SURFACE('',#527,1.65);
#131=FACE_OUTER_BOUND('',#159,.T.);
#132=FACE_OUTER_BOUND('',#160,.T.);
#133=FACE_OUTER_BOUND('',#161,.T.);
#134=FACE_OUTER_BOUND('',#162,.T.);
#135=FACE_OUTER_BOUND('',#163,.T.);
#136=FACE_OUTER_BOUND('',#164,.T.);
#137=FACE_OUTER_BOUND('',#165,.T.);
#138=FACE_OUTER_BOUND('',#166,.T.);
#139=FACE_OUTER_BOUND('',#167,.T.);
#140=FACE_OUTER_BOUND('',#168,.T.);
#141=FACE_OUTER_BOUND('',#169,.T.);
#142=FACE_OUTER_BOUND('',#170,.T.);
#143=FACE_OUTER_BOUND('',#171,.T.);
#144=FACE_OUTER_BOUND('',#172,.T.);
#145=FACE_OUTER_BOUND('',#173,.T.);
#146=FACE_OUTER_BOUND('',#174,.T.);
#147=FACE_OUTER_BOUND('',#175,.T.);
#148=FACE_OUTER_BOUND('',#176,.T.);
#149=FACE_OUTER_BOUND('',#177,.T.);
#150=FACE_OUTER_BOUND('',#179,.T.);
#151=FACE_OUTER_BOUND('',#181,.T.);
#152=FACE_OUTER_BOUND('',#182,.T.);
#153=FACE_OUTER_BOUND('',#183,.T.);
#154=FACE_OUTER_BOUND('',#184,.T.);
#155=FACE_OUTER_BOUND('',#185,.T.);
#156=FACE_OUTER_BOUND('',#186,.T.);
#157=FACE_OUTER_BOUND('',#187,.T.);
#158=FACE_OUTER_BOUND('',#188,.T.);
#159=EDGE_LOOP('',(#316,#317,#318,#319));
#160=EDGE_LOOP('',(#320,#321,#322,#323,#324,#325,#326));
#161=EDGE_LOOP('',(#327,#328,#329,#330));
#162=EDGE_LOOP('',(#331,#332,#333,#334));
#163=EDGE_LOOP('',(#335,#336,#337));
#164=EDGE_LOOP('',(#338,#339,#340,#341));
#165=EDGE_LOOP('',(#342,#343,#344));
#166=EDGE_LOOP('',(#345,#346,#347,#348,#349,#350,#351,#352));
#167=EDGE_LOOP('',(#353,#354,#355,#356,#357,#358));
#168=EDGE_LOOP('',(#359,#360,#361,#362,#363,#364));
#169=EDGE_LOOP('',(#365,#366,#367,#368));
#170=EDGE_LOOP('',(#369,#370,#371));
#171=EDGE_LOOP('',(#372,#373,#374,#375));
#172=EDGE_LOOP('',(#376,#377,#378));
#173=EDGE_LOOP('',(#379,#380,#381));
#174=EDGE_LOOP('',(#382,#383,#384,#385));
#175=EDGE_LOOP('',(#386,#387,#388,#389,#390,#391,#392));
#176=EDGE_LOOP('',(#393,#394,#395,#396));
#177=EDGE_LOOP('',(#397));
#178=EDGE_LOOP('',(#398));
#179=EDGE_LOOP('',(#399,#400,#401,#402,#403,#404,#405,#406));
#180=EDGE_LOOP('',(#407));
#181=EDGE_LOOP('',(#408,#409,#410,#411,#412,#413,#414));
#182=EDGE_LOOP('',(#415));
#183=EDGE_LOOP('',(#416,#417,#418,#419));
#184=EDGE_LOOP('',(#420,#421,#422,#423));
#185=EDGE_LOOP('',(#424,#425,#426,#427,#428,#429));
#186=EDGE_LOOP('',(#430,#431,#432,#433));
#187=EDGE_LOOP('',(#434,#435,#436,#437,#438,#439,#440,#441));
#188=EDGE_LOOP('',(#442,#443,#444,#445,#446));
#189=EDGE_LOOP('',(#447));
#190=CIRCLE('',#494,2.99947317432487);
#191=CIRCLE('',#495,4.99947317432487);
#192=CIRCLE('',#497,2.99947317432487);
#193=CIRCLE('',#498,2.99947317432487);
#194=CIRCLE('',#500,3.);
#195=CIRCLE('',#501,5.);
#196=CIRCLE('',#506,3.);
#197=CIRCLE('',#508,4.99947317432487);
#198=CIRCLE('',#509,2.99947317432487);
#199=CIRCLE('',#510,4.99947317432487);
#200=CIRCLE('',#511,2.99947317432487);
#201=CIRCLE('',#513,2.99947317432487);
#202=CIRCLE('',#519,1.5);
#203=CIRCLE('',#520,1.5);
#204=CIRCLE('',#523,1.65);
#205=CIRCLE('',#528,1.65);
#206=(
BOUNDED_CURVE()
B_SPLINE_CURVE(2,(#660,#661,#662),.UNSPECIFIED.,.F.,.F.)
B_SPLINE_CURVE_WITH_KNOTS((3,3),(0.,0.453199681624923),.UNSPECIFIED.)
CURVE()
GEOMETRIC_REPRESENTATION_ITEM()
RATIONAL_B_SPLINE_CURVE((1.,1.154725889465,1.))
REPRESENTATION_ITEM('')
);
#207=(
BOUNDED_CURVE()
B_SPLINE_CURVE(2,(#666,#667,#668),.UNSPECIFIED.,.F.,.F.)
B_SPLINE_CURVE_WITH_KNOTS((3,3),(0.453199681624923,0.906399363249844),
 .UNSPECIFIED.)
CURVE()
GEOMETRIC_REPRESENTATION_ITEM()
RATIONAL_B_SPLINE_CURVE((1.,1.15472588946496,1.))
REPRESENTATION_ITEM('')
);
#208=(
BOUNDED_CURVE()
B_SPLINE_CURVE(2,(#788,#789,#790),.UNSPECIFIED.,.F.,.F.)
B_SPLINE_CURVE_WITH_KNOTS((3,3),(0.542493219366811,1.25734873215963),
 .UNSPECIFIED.)
CURVE()
GEOMETRIC_REPRESENTATION_ITEM()
RATIONAL_B_SPLINE_CURVE((1.42107598248829,1.57880694513947,1.42107598248829))
REPRESENTATION_ITEM('')
);
#209=VERTEX_POINT('',#658);
#210=VERTEX_POINT('',#659);
#211=VERTEX_POINT('',#663);
#212=VERTEX_POINT('',#665);
#213=VERTEX_POINT('',#671);
#214=VERTEX_POINT('',#674);
#215=VERTEX_POINT('',#676);
#216=VERTEX_POINT('',#680);
#217=VERTEX_POINT('',#681);
#218=VERTEX_POINT('',#683);
#219=VERTEX_POINT('',#685);
#220=VERTEX_POINT('',#704);
#221=VERTEX_POINT('',#709);
#222=VERTEX_POINT('',#716);
#223=VERTEX_POINT('',#735);
#224=VERTEX_POINT('',#746);
#225=VERTEX_POINT('',#753);
#226=VERTEX_POINT('',#757);
#227=VERTEX_POINT('',#759);
#228=VERTEX_POINT('',#761);
#229=VERTEX_POINT('',#763);
#230=VERTEX_POINT('',#765);
#231=VERTEX_POINT('',#767);
#232=VERTEX_POINT('',#782);
#233=VERTEX_POINT('',#786);
#234=VERTEX_POINT('',#787);
#235=VERTEX_POINT('',#791);
#236=VERTEX_POINT('',#793);
#237=VERTEX_POINT('',#795);
#238=VERTEX_POINT('',#815);
#239=VERTEX_POINT('',#820);
#240=VERTEX_POINT('',#824);
#241=VERTEX_POINT('',#843);
#242=VERTEX_POINT('',#849);
#243=VERTEX_POINT('',#853);
#244=VERTEX_POINT('',#860);
#245=VERTEX_POINT('',#862);
#246=VERTEX_POINT('',#868);
#247=VERTEX_POINT('',#876);
#248=VERTEX_POINT('',#880);
#249=VERTEX_POINT('',#881);
#250=EDGE_CURVE('',#209,#210,#206,.T.);
#251=EDGE_CURVE('',#210,#211,#190,.T.);
#252=EDGE_CURVE('',#211,#212,#207,.T.);
#253=EDGE_CURVE('',#212,#209,#191,.T.);
#254=EDGE_CURVE('',#213,#213,#192,.T.);
#255=EDGE_CURVE('',#213,#211,#45,.T.);
#256=EDGE_CURVE('',#214,#210,#46,.T.);
#257=EDGE_CURVE('',#214,#215,#193,.T.);
#258=EDGE_CURVE('',#215,#211,#47,.T.);
#259=EDGE_CURVE('',#216,#217,#48,.T.);
#260=EDGE_CURVE('',#217,#218,#194,.T.);
#261=EDGE_CURVE('',#218,#219,#49,.T.);
#262=EDGE_CURVE('',#219,#216,#195,.T.);
#263=EDGE_CURVE('',#216,#220,#35,.T.);
#264=EDGE_CURVE('',#220,#221,#50,.T.);
#265=EDGE_CURVE('',#221,#217,#36,.T.);
#266=EDGE_CURVE('',#220,#222,#51,.T.);
#267=EDGE_CURVE('',#222,#221,#52,.T.);
#268=EDGE_CURVE('',#223,#219,#37,.T.);
#269=EDGE_CURVE('',#218,#224,#38,.T.);
#270=EDGE_CURVE('',#224,#223,#53,.T.);
#271=EDGE_CURVE('',#225,#223,#54,.T.);
#272=EDGE_CURVE('',#224,#225,#55,.T.);
#273=EDGE_CURVE('',#226,#225,#56,.T.);
#274=EDGE_CURVE('',#227,#224,#57,.T.);
#275=EDGE_CURVE('',#228,#227,#58,.T.);
#276=EDGE_CURVE('',#228,#229,#59,.T.);
#277=EDGE_CURVE('',#230,#229,#60,.T.);
#278=EDGE_CURVE('',#231,#230,#39,.T.);
#279=EDGE_CURVE('',#226,#231,#61,.T.);
#280=EDGE_CURVE('',#232,#221,#62,.T.);
#281=EDGE_CURVE('',#232,#227,#196,.T.);
#282=EDGE_CURVE('',#233,#234,#208,.F.);
#283=EDGE_CURVE('',#233,#235,#197,.T.);
#284=EDGE_CURVE('',#235,#236,#63,.T.);
#285=EDGE_CURVE('',#237,#236,#198,.T.);
#286=EDGE_CURVE('',#237,#230,#64,.T.);
#287=EDGE_CURVE('',#230,#234,#199,.T.);
#288=EDGE_CURVE('',#238,#235,#40,.F.);
#289=EDGE_CURVE('',#238,#239,#65,.T.);
#290=EDGE_CURVE('',#236,#239,#200,.T.);
#291=EDGE_CURVE('',#240,#238,#66,.F.);
#292=EDGE_CURVE('',#239,#240,#67,.T.);
#293=EDGE_CURVE('',#241,#237,#201,.T.);
#294=EDGE_CURVE('',#241,#231,#68,.T.);
#295=EDGE_CURVE('',#226,#241,#69,.T.);
#296=EDGE_CURVE('',#233,#242,#70,.T.);
#297=EDGE_CURVE('',#242,#235,#71,.T.);
#298=EDGE_CURVE('',#229,#243,#72,.T.);
#299=EDGE_CURVE('',#243,#234,#73,.T.);
#300=EDGE_CURVE('',#212,#226,#74,.T.);
#301=EDGE_CURVE('',#215,#219,#75,.T.);
#302=EDGE_CURVE('',#244,#244,#202,.T.);
#303=EDGE_CURVE('',#244,#245,#76,.T.);
#304=EDGE_CURVE('',#245,#245,#203,.T.);
#305=EDGE_CURVE('',#240,#209,#77,.T.);
#306=EDGE_CURVE('',#246,#246,#204,.T.);
#307=EDGE_CURVE('',#222,#240,#78,.T.);
#308=EDGE_CURVE('',#216,#214,#79,.T.);
#309=EDGE_CURVE('',#246,#247,#80,.T.);
#310=EDGE_CURVE('',#247,#247,#205,.T.);
#311=EDGE_CURVE('',#248,#249,#81,.T.);
#312=EDGE_CURVE('',#248,#242,#82,.T.);
#313=EDGE_CURVE('',#249,#243,#83,.T.);
#314=EDGE_CURVE('',#249,#228,#84,.T.);
#315=EDGE_CURVE('',#232,#248,#85,.T.);
#316=ORIENTED_EDGE('',*,*,#250,.T.);
#317=ORIENTED_EDGE('',*,*,#251,.T.);
#318=ORIENTED_EDGE('',*,*,#252,.T.);
#319=ORIENTED_EDGE('',*,*,#253,.T.);
#320=ORIENTED_EDGE('',*,*,#254,.F.);
#321=ORIENTED_EDGE('',*,*,#255,.T.);
#322=ORIENTED_EDGE('',*,*,#251,.F.);
#323=ORIENTED_EDGE('',*,*,#256,.F.);
#324=ORIENTED_EDGE('',*,*,#257,.T.);
#325=ORIENTED_EDGE('',*,*,#258,.T.);
#326=ORIENTED_EDGE('',*,*,#255,.F.);
#327=ORIENTED_EDGE('',*,*,#259,.T.);
#328=ORIENTED_EDGE('',*,*,#260,.T.);
#329=ORIENTED_EDGE('',*,*,#261,.T.);
#330=ORIENTED_EDGE('',*,*,#262,.T.);
#331=ORIENTED_EDGE('',*,*,#263,.T.);
#332=ORIENTED_EDGE('',*,*,#264,.T.);
#333=ORIENTED_EDGE('',*,*,#265,.T.);
#334=ORIENTED_EDGE('',*,*,#259,.F.);
#335=ORIENTED_EDGE('',*,*,#266,.T.);
#336=ORIENTED_EDGE('',*,*,#267,.T.);
#337=ORIENTED_EDGE('',*,*,#264,.F.);
#338=ORIENTED_EDGE('',*,*,#268,.T.);
#339=ORIENTED_EDGE('',*,*,#261,.F.);
#340=ORIENTED_EDGE('',*,*,#269,.T.);
#341=ORIENTED_EDGE('',*,*,#270,.T.);
#342=ORIENTED_EDGE('',*,*,#271,.T.);
#343=ORIENTED_EDGE('',*,*,#270,.F.);
#344=ORIENTED_EDGE('',*,*,#272,.T.);
#345=ORIENTED_EDGE('',*,*,#273,.T.);
#346=ORIENTED_EDGE('',*,*,#272,.F.);
#347=ORIENTED_EDGE('',*,*,#274,.F.);
#348=ORIENTED_EDGE('',*,*,#275,.F.);
#349=ORIENTED_EDGE('',*,*,#276,.T.);
#350=ORIENTED_EDGE('',*,*,#277,.F.);
#351=ORIENTED_EDGE('',*,*,#278,.F.);
#352=ORIENTED_EDGE('',*,*,#279,.F.);
#353=ORIENTED_EDGE('',*,*,#269,.F.);
#354=ORIENTED_EDGE('',*,*,#260,.F.);
#355=ORIENTED_EDGE('',*,*,#265,.F.);
#356=ORIENTED_EDGE('',*,*,#280,.F.);
#357=ORIENTED_EDGE('',*,*,#281,.T.);
#358=ORIENTED_EDGE('',*,*,#274,.T.);
#359=ORIENTED_EDGE('',*,*,#282,.F.);
#360=ORIENTED_EDGE('',*,*,#283,.T.);
#361=ORIENTED_EDGE('',*,*,#284,.T.);
#362=ORIENTED_EDGE('',*,*,#285,.F.);
#363=ORIENTED_EDGE('',*,*,#286,.T.);
#364=ORIENTED_EDGE('',*,*,#287,.T.);
#365=ORIENTED_EDGE('',*,*,#288,.F.);
#366=ORIENTED_EDGE('',*,*,#289,.T.);
#367=ORIENTED_EDGE('',*,*,#290,.F.);
#368=ORIENTED_EDGE('',*,*,#284,.F.);
#369=ORIENTED_EDGE('',*,*,#291,.F.);
#370=ORIENTED_EDGE('',*,*,#292,.F.);
#371=ORIENTED_EDGE('',*,*,#289,.F.);
#372=ORIENTED_EDGE('',*,*,#278,.T.);
#373=ORIENTED_EDGE('',*,*,#286,.F.);
#374=ORIENTED_EDGE('',*,*,#293,.F.);
#375=ORIENTED_EDGE('',*,*,#294,.T.);
#376=ORIENTED_EDGE('',*,*,#279,.T.);
#377=ORIENTED_EDGE('',*,*,#294,.F.);
#378=ORIENTED_EDGE('',*,*,#295,.F.);
#379=ORIENTED_EDGE('',*,*,#283,.F.);
#380=ORIENTED_EDGE('',*,*,#296,.T.);
#381=ORIENTED_EDGE('',*,*,#297,.T.);
#382=ORIENTED_EDGE('',*,*,#287,.F.);
#383=ORIENTED_EDGE('',*,*,#277,.T.);
#384=ORIENTED_EDGE('',*,*,#298,.T.);
#385=ORIENTED_EDGE('',*,*,#299,.T.);
#386=ORIENTED_EDGE('',*,*,#273,.F.);
#387=ORIENTED_EDGE('',*,*,#300,.F.);
#388=ORIENTED_EDGE('',*,*,#252,.F.);
#389=ORIENTED_EDGE('',*,*,#258,.F.);
#390=ORIENTED_EDGE('',*,*,#301,.T.);
#391=ORIENTED_EDGE('',*,*,#268,.F.);
#392=ORIENTED_EDGE('',*,*,#271,.F.);
#393=ORIENTED_EDGE('',*,*,#302,.F.);
#394=ORIENTED_EDGE('',*,*,#303,.T.);
#395=ORIENTED_EDGE('',*,*,#304,.F.);
#396=ORIENTED_EDGE('',*,*,#303,.F.);
#397=ORIENTED_EDGE('',*,*,#254,.T.);
#398=ORIENTED_EDGE('',*,*,#302,.T.);
#399=ORIENTED_EDGE('',*,*,#253,.F.);
#400=ORIENTED_EDGE('',*,*,#300,.T.);
#401=ORIENTED_EDGE('',*,*,#295,.T.);
#402=ORIENTED_EDGE('',*,*,#293,.T.);
#403=ORIENTED_EDGE('',*,*,#285,.T.);
#404=ORIENTED_EDGE('',*,*,#290,.T.);
#405=ORIENTED_EDGE('',*,*,#292,.T.);
#406=ORIENTED_EDGE('',*,*,#305,.T.);
#407=ORIENTED_EDGE('',*,*,#306,.T.);
#408=ORIENTED_EDGE('',*,*,#307,.F.);
#409=ORIENTED_EDGE('',*,*,#266,.F.);
#410=ORIENTED_EDGE('',*,*,#263,.F.);
#411=ORIENTED_EDGE('',*,*,#308,.T.);
#412=ORIENTED_EDGE('',*,*,#256,.T.);
#413=ORIENTED_EDGE('',*,*,#250,.F.);
#414=ORIENTED_EDGE('',*,*,#305,.F.);
#415=ORIENTED_EDGE('',*,*,#304,.T.);
#416=ORIENTED_EDGE('',*,*,#262,.F.);
#417=ORIENTED_EDGE('',*,*,#301,.F.);
#418=ORIENTED_EDGE('',*,*,#257,.F.);
#419=ORIENTED_EDGE('',*,*,#308,.F.);
#420=ORIENTED_EDGE('',*,*,#306,.F.);
#421=ORIENTED_EDGE('',*,*,#309,.T.);
#422=ORIENTED_EDGE('',*,*,#310,.T.);
#423=ORIENTED_EDGE('',*,*,#309,.F.);
#424=ORIENTED_EDGE('',*,*,#311,.F.);
#425=ORIENTED_EDGE('',*,*,#312,.T.);
#426=ORIENTED_EDGE('',*,*,#296,.F.);
#427=ORIENTED_EDGE('',*,*,#282,.T.);
#428=ORIENTED_EDGE('',*,*,#299,.F.);
#429=ORIENTED_EDGE('',*,*,#313,.F.);
#430=ORIENTED_EDGE('',*,*,#314,.F.);
#431=ORIENTED_EDGE('',*,*,#313,.T.);
#432=ORIENTED_EDGE('',*,*,#298,.F.);
#433=ORIENTED_EDGE('',*,*,#276,.F.);
#434=ORIENTED_EDGE('',*,*,#307,.T.);
#435=ORIENTED_EDGE('',*,*,#291,.T.);
#436=ORIENTED_EDGE('',*,*,#288,.T.);
#437=ORIENTED_EDGE('',*,*,#297,.F.);
#438=ORIENTED_EDGE('',*,*,#312,.F.);
#439=ORIENTED_EDGE('',*,*,#315,.F.);
#440=ORIENTED_EDGE('',*,*,#280,.T.);
#441=ORIENTED_EDGE('',*,*,#267,.F.);
#442=ORIENTED_EDGE('',*,*,#315,.T.);
#443=ORIENTED_EDGE('',*,*,#311,.T.);
#444=ORIENTED_EDGE('',*,*,#314,.T.);
#445=ORIENTED_EDGE('',*,*,#275,.T.);
#446=ORIENTED_EDGE('',*,*,#281,.F.);
#447=ORIENTED_EDGE('',*,*,#310,.F.);
#448=CONICAL_SURFACE('',#493,3.99947317432487,0.785398163397449);
#449=CONICAL_SURFACE('',#499,4.,0.785398163397449);
#450=CONICAL_SURFACE('',#507,3.99947317432487,0.785398163397449);
#451=ADVANCED_FACE('',(#131),#448,.T.);
#452=ADVANCED_FACE('',(#132),#127,.T.);
#453=ADVANCED_FACE('',(#133),#449,.T.);
#454=ADVANCED_FACE('',(#134),#41,.T.);
#455=ADVANCED_FACE('',(#135),#18,.T.);
#456=ADVANCED_FACE('',(#136),#42,.T.);
#457=ADVANCED_FACE('',(#137),#19,.T.);
#458=ADVANCED_FACE('',(#138),#20,.T.);
#459=ADVANCED_FACE('',(#139),#128,.T.);
#460=ADVANCED_FACE('',(#140),#450,.T.);
#461=ADVANCED_FACE('',(#141),#43,.T.);
#462=ADVANCED_FACE('',(#142),#21,.T.);
#463=ADVANCED_FACE('',(#143),#44,.T.);
#464=ADVANCED_FACE('',(#144),#22,.T.);
#465=ADVANCED_FACE('',(#145),#23,.T.);
#466=ADVANCED_FACE('',(#146),#24,.T.);
#467=ADVANCED_FACE('',(#147),#25,.T.);
#468=ADVANCED_FACE('',(#148),#129,.F.);
#469=ADVANCED_FACE('',(#149,#15),#26,.T.);
#470=ADVANCED_FACE('',(#150,#16),#27,.T.);
#471=ADVANCED_FACE('',(#151),#28,.T.);
#472=ADVANCED_FACE('',(#152),#29,.T.);
#473=ADVANCED_FACE('',(#153),#30,.F.);
#474=ADVANCED_FACE('',(#154),#130,.F.);
#475=ADVANCED_FACE('',(#155),#31,.T.);
#476=ADVANCED_FACE('',(#156),#32,.T.);
#477=ADVANCED_FACE('',(#157),#33,.T.);
#478=ADVANCED_FACE('',(#158,#17),#34,.F.);
#479=CLOSED_SHELL('',(#451,#452,#453,#454,#455,#456,#457,#458,#459,#460,
#461,#462,#463,#464,#465,#466,#467,#468,#469,#470,#471,#472,#473,#474,#475,
#476,#477,#478));
#480=DERIVED_UNIT_ELEMENT(#482,1.);
#481=DERIVED_UNIT_ELEMENT(#895,-3.);
#482=(
MASS_UNIT()
NAMED_UNIT(*)
SI_UNIT(.KILO.,.GRAM.)
);
#483=DERIVED_UNIT((#480,#481));
#484=MEASURE_REPRESENTATION_ITEM('density measure',
POSITIVE_RATIO_MEASURE(7850.),#483);
#485=PROPERTY_DEFINITION_REPRESENTATION(#490,#487);
#486=PROPERTY_DEFINITION_REPRESENTATION(#491,#488);
#487=REPRESENTATION('material name',(#489),#892);
#488=REPRESENTATION('density',(#484),#892);
#489=DESCRIPTIVE_REPRESENTATION_ITEM('Steel','Steel');
#490=PROPERTY_DEFINITION('material property','material name',#902);
#491=PROPERTY_DEFINITION('material property','density of part',#902);
#492=AXIS2_PLACEMENT_3D('',#656,#533,#534);
#493=AXIS2_PLACEMENT_3D('',#657,#535,#536);
#494=AXIS2_PLACEMENT_3D('',#664,#537,#538);
#495=AXIS2_PLACEMENT_3D('',#669,#539,#540);
#496=AXIS2_PLACEMENT_3D('',#670,#541,#542);
#497=AXIS2_PLACEMENT_3D('',#672,#543,#544);
#498=AXIS2_PLACEMENT_3D('',#677,#547,#548);
#499=AXIS2_PLACEMENT_3D('',#679,#550,#551);
#500=AXIS2_PLACEMENT_3D('',#684,#553,#554);
#501=AXIS2_PLACEMENT_3D('',#687,#556,#557);
#502=AXIS2_PLACEMENT_3D('',#715,#559,#560);
#503=AXIS2_PLACEMENT_3D('',#752,#564,#565);
#504=AXIS2_PLACEMENT_3D('',#756,#568,#569);
#505=AXIS2_PLACEMENT_3D('',#781,#576,#577);
#506=AXIS2_PLACEMENT_3D('',#784,#579,#580);
#507=AXIS2_PLACEMENT_3D('',#785,#581,#582);
#508=AXIS2_PLACEMENT_3D('',#792,#583,#584);
#509=AXIS2_PLACEMENT_3D('',#796,#586,#587);
#510=AXIS2_PLACEMENT_3D('',#798,#589,#590);
#511=AXIS2_PLACEMENT_3D('',#822,#592,#593);
#512=AXIS2_PLACEMENT_3D('',#823,#594,#595);
#513=AXIS2_PLACEMENT_3D('',#844,#598,#599);
#514=AXIS2_PLACEMENT_3D('',#846,#601,#602);
#515=AXIS2_PLACEMENT_3D('',#848,#604,#605);
#516=AXIS2_PLACEMENT_3D('',#852,#608,#609);
#517=AXIS2_PLACEMENT_3D('',#856,#612,#613);
#518=AXIS2_PLACEMENT_3D('',#859,#616,#617);
#519=AXIS2_PLACEMENT_3D('',#861,#618,#619);
#520=AXIS2_PLACEMENT_3D('',#864,#621,#622);
#521=AXIS2_PLACEMENT_3D('',#865,#623,#624);
#522=AXIS2_PLACEMENT_3D('',#866,#625,#626);
#523=AXIS2_PLACEMENT_3D('',#869,#628,#629);
#524=AXIS2_PLACEMENT_3D('',#870,#630,#631);
#525=AXIS2_PLACEMENT_3D('',#873,#634,#635);
#526=AXIS2_PLACEMENT_3D('',#874,#636,#637);
#527=AXIS2_PLACEMENT_3D('',#875,#638,#639);
#528=AXIS2_PLACEMENT_3D('',#878,#641,#642);
#529=AXIS2_PLACEMENT_3D('',#879,#643,#644);
#530=AXIS2_PLACEMENT_3D('',#885,#648,#649);
#531=AXIS2_PLACEMENT_3D('',#887,#651,#652);
#532=AXIS2_PLACEMENT_3D('',#889,#654,#655);
#533=DIRECTION('axis',(0.,0.,1.));
#534=DIRECTION('refdir',(1.,0.,0.));
#535=DIRECTION('center_axis',(0.,0.,-1.));
#536=DIRECTION('ref_axis',(0.762070283714817,0.647494310923902,4.40210984800238E-48));
#537=DIRECTION('center_axis',(5.36740595831048E-48,4.56042558894167E-48,
-1.));
#538=DIRECTION('ref_axis',(0.762070283714817,0.647494310923902,0.));
#539=DIRECTION('center_axis',(-5.36740595831048E-48,-4.56042558894167E-48,
1.));
#540=DIRECTION('ref_axis',(0.762070283714817,0.647494310923902,7.04319020569378E-48));
#541=DIRECTION('center_axis',(0.,0.,1.));
#542=DIRECTION('ref_axis',(0.762070283714817,0.647494310923902,0.));
#543=DIRECTION('center_axis',(0.,0.,1.));
#544=DIRECTION('ref_axis',(-1.,0.,0.));
#545=DIRECTION('',(0.,0.,-1.));
#546=DIRECTION('',(0.,0.,1.));
#547=DIRECTION('center_axis',(-5.36740595831048E-48,-4.56042558894167E-48,
1.));
#548=DIRECTION('ref_axis',(0.762070283714817,0.647494310923902,7.04319020569378E-48));
#549=DIRECTION('',(0.,0.,1.));
#550=DIRECTION('center_axis',(0.,0.,1.));
#551=DIRECTION('ref_axis',(0.0172975536413666,0.999850386126857,2.90786642405312E-48));
#552=DIRECTION('',(0.0430520087230255,-0.705794959279898,-0.707106781186547));
#553=DIRECTION('center_axis',(-5.36740595831048E-48,-4.56042558894167E-48,
1.));
#554=DIRECTION('ref_axis',(0.0172975536413666,0.999850386126857,0.));
#555=DIRECTION('',(-0.689576531968886,0.156474299991286,0.707106781186548));
#556=DIRECTION('center_axis',(5.36740595831048E-48,4.56042558894167E-48,
-1.));
#557=DIRECTION('ref_axis',(0.0172975536413666,0.999850386126857,4.65258627848499E-48));
#558=DIRECTION('',(-0.0122312174777484,-0.707000988202287,-0.707106781186549));
#559=DIRECTION('center_axis',(0.0122312174777496,0.707000988202288,-0.707106781186548));
#560=DIRECTION('ref_axis',(-0.999850430882087,0.,-0.0172949664615281));
#561=DIRECTION('',(0.517807436484049,-0.609434945409765,-0.60038696357867));
#562=DIRECTION('',(-0.999850386126857,0.0172975536413683,-5.28771871366413E-48));
#563=DIRECTION('',(-0.569824298239501,-0.418688749712553,0.707106781186547));
#564=DIRECTION('center_axis',(-0.569824298239505,-0.418688749712549,-0.707106781186546));
#565=DIRECTION('ref_axis',(-0.778640655091396,0.,0.627470103063757));
#566=DIRECTION('',(-0.645888827027649,0.760180704844894,0.0703769784970079));
#567=DIRECTION('',(0.59211530825652,-0.805853250740038,-4.96910552063808E-49));
#568=DIRECTION('center_axis',(-0.805853250740038,-0.59211530825652,0.));
#569=DIRECTION('ref_axis',(0.59211530825652,-0.805853250740038,2.33548309033228E-31));
#570=DIRECTION('',(0.,0.,-1.));
#571=DIRECTION('',(0.,0.,1.));
#572=DIRECTION('',(-0.59211530825652,0.805853250740038,-2.33548309033228E-31));
#573=DIRECTION('',(0.,0.,1.));
#574=DIRECTION('',(0.59211530825652,-0.805853250740038,2.33548309033228E-31));
#575=DIRECTION('',(0.590647138457817,-0.803855110532504,-0.0703769784970077));
#576=DIRECTION('center_axis',(0.,0.,1.));
#577=DIRECTION('ref_axis',(0.0172975536413666,0.999850386126857,0.));
#578=DIRECTION('',(0.,0.,1.));
#579=DIRECTION('center_axis',(-3.94430452610506E-31,4.86173068582903E-63,
1.));
#580=DIRECTION('ref_axis',(0.0172975536413666,0.999850386126857,6.82268191181875E-33));
#581=DIRECTION('center_axis',(0.,0.,-1.));
#582=DIRECTION('ref_axis',(-0.762070283714817,-0.647494310923902,-1.87869778581783E-31));
#583=DIRECTION('center_axis',(-3.94430452610506E-31,4.86173068582903E-63,
1.));
#584=DIRECTION('ref_axis',(-0.762070283714817,-0.647494310923902,-3.00583726926652E-31));
#585=DIRECTION('',(-0.572906766119153,-0.414460899645424,0.707106781186548));
#586=DIRECTION('center_axis',(-5.36740595831048E-48,-4.56042558894167E-48,
1.));
#587=DIRECTION('ref_axis',(-0.762070283714817,-0.647494310923902,-7.04319020569379E-48));
#588=DIRECTION('',(-0.00699946230316592,-0.70707213742833,-0.707106781186547));
#589=DIRECTION('center_axis',(-3.94430452610506E-31,4.86173068582903E-63,
1.));
#590=DIRECTION('ref_axis',(-0.762070283714817,-0.647494310923902,-3.00583726926652E-31));
#591=DIRECTION('',(-0.538865065355504,-0.457847618034002,0.707106781186547));
#592=DIRECTION('center_axis',(-5.36740595831048E-48,-4.56042558894167E-48,
1.));
#593=DIRECTION('ref_axis',(-0.762070283714817,-0.647494310923902,-7.04319020569379E-48));
#594=DIRECTION('center_axis',(0.538865065355503,0.457847618034001,0.707106781186548));
#595=DIRECTION('ref_axis',(0.795368251300486,0.,-0.606126508926318));
#596=DIRECTION('',(-0.799589983376366,0.0138330202402889,0.600386963578669));
#597=DIRECTION('',(-0.647494310923902,0.762070283714817,7.04319020569378E-48));
#598=DIRECTION('center_axis',(-5.36740595831048E-48,-4.56042558894167E-48,
1.));
#599=DIRECTION('ref_axis',(-0.762070283714817,-0.647494310923902,-7.04319020569379E-48));
#600=DIRECTION('',(-0.538865065355504,-0.457847618034002,-0.707106781186547));
#601=DIRECTION('center_axis',(-0.538865065355504,-0.457847618034002,0.707106781186547));
#602=DIRECTION('ref_axis',(0.795368251300485,0.,0.606126508926319));
#603=DIRECTION('',(0.647494310923902,-0.762070283714817,-7.04319020569378E-48));
#604=DIRECTION('center_axis',(-3.94430452610506E-31,4.86173068582903E-63,
1.));
#605=DIRECTION('ref_axis',(-1.,-9.86076131526265E-32,-3.94430452610506E-31));
#606=DIRECTION('',(5.92118946466749E-17,1.,2.33549744054136E-47));
#607=DIRECTION('',(-0.999850386126857,0.0172975536413683,-3.94371440342805E-31));
#608=DIRECTION('center_axis',(-3.94430452610506E-31,4.86173068582903E-63,
1.));
#609=DIRECTION('ref_axis',(-1.,-9.86076131526265E-32,-3.94430452610506E-31));
#610=DIRECTION('',(1.,9.86076131526265E-32,3.94430452610506E-31));
#611=DIRECTION('',(5.92118946466749E-17,1.,2.33549744054136E-47));
#612=DIRECTION('center_axis',(-0.762070283714817,-0.647494310923902,0.));
#613=DIRECTION('ref_axis',(0.647494310923902,-0.762070283714817,-7.04319020569378E-48));
#614=DIRECTION('',(0.647494310923902,-0.762070283714817,-7.04319020569378E-48));
#615=DIRECTION('',(0.647494310923902,-0.762070283714817,-7.04319020569378E-48));
#616=DIRECTION('center_axis',(0.,0.,1.));
#617=DIRECTION('ref_axis',(-1.,0.,0.));
#618=DIRECTION('center_axis',(0.,0.,-1.));
#619=DIRECTION('ref_axis',(-1.,0.,0.));
#620=DIRECTION('',(0.,0.,-1.));
#621=DIRECTION('center_axis',(-5.36740595831048E-48,-4.56042558894167E-48,
1.));
#622=DIRECTION('ref_axis',(-1.,0.,0.));
#623=DIRECTION('center_axis',(-1.96573652888783E-64,2.3135792376934E-64,
1.));
#624=DIRECTION('ref_axis',(-1.,0.,-1.96573652888783E-64));
#625=DIRECTION('center_axis',(-5.36740595831048E-48,-4.56042558894167E-48,
1.));
#626=DIRECTION('ref_axis',(-1.,0.,-5.36740595831048E-48));
#627=DIRECTION('',(-0.647494310923902,0.762070283714817,7.04319020569378E-48));
#628=DIRECTION('center_axis',(0.,0.,-1.));
#629=DIRECTION('ref_axis',(-1.,0.,0.));
#630=DIRECTION('center_axis',(0.762070283714817,0.647494310923902,0.));
#631=DIRECTION('ref_axis',(-0.647494310923902,0.762070283714817,7.04319020569378E-48));
#632=DIRECTION('',(0.,0.,1.));
#633=DIRECTION('',(-0.647494310923902,0.762070283714817,7.04319020569378E-48));
#634=DIRECTION('center_axis',(-5.36740595831048E-48,-4.56042558894167E-48,
1.));
#635=DIRECTION('ref_axis',(-1.,0.,-5.36740595831048E-48));
#636=DIRECTION('center_axis',(-5.36740595831048E-48,-4.56042558894167E-48,
1.));
#637=DIRECTION('ref_axis',(-1.,0.,-5.36740595831048E-48));
#638=DIRECTION('center_axis',(0.,0.,1.));
#639=DIRECTION('ref_axis',(-1.,-9.86076131526265E-32,0.));
#640=DIRECTION('',(0.,0.,-1.));
#641=DIRECTION('center_axis',(3.94430452610506E-31,-4.86173068582903E-63,
-1.));
#642=DIRECTION('ref_axis',(-1.,-9.86076131526265E-32,-3.94430452610506E-31));
#643=DIRECTION('center_axis',(1.,-5.92118946466749E-17,0.));
#644=DIRECTION('ref_axis',(5.92118946466749E-17,1.,2.33549744054136E-47));
#645=DIRECTION('',(-5.92118946466749E-17,-1.,-2.33549744054136E-47));
#646=DIRECTION('',(0.,0.,1.));
#647=DIRECTION('',(0.,0.,1.));
#648=DIRECTION('center_axis',(9.86076131526265E-32,-1.,0.));
#649=DIRECTION('ref_axis',(1.,9.86076131526265E-32,3.94430452610506E-31));
#650=DIRECTION('',(-1.,-9.86076131526265E-32,-3.94430452610506E-31));
#651=DIRECTION('center_axis',(0.0172975536413683,0.999850386126857,0.));
#652=DIRECTION('ref_axis',(-0.999850386126857,0.0172975536413683,-3.94371440342805E-31));
#653=DIRECTION('',(0.999850386126857,-0.0172975536413683,3.94371440342805E-31));
#654=DIRECTION('center_axis',(-3.94430452610506E-31,4.86173068582903E-63,
1.));
#655=DIRECTION('ref_axis',(-1.,-9.86076131526265E-32,-3.94430452610506E-31));
#656=CARTESIAN_POINT('',(0.,0.,0.));
#657=CARTESIAN_POINT('Origin',(25.3773024854119,65.5726346688388,8.05466400000001));
#658=CARTESIAN_POINT('',(30.2529185381302,64.4666960958297,7.05466400000001));
#659=CARTESIAN_POINT('',(27.6631118583646,67.5147764849831,9.05466400000001));
#660=CARTESIAN_POINT('Ctrl Pts',(30.2529185381302,64.4666960958297,7.05466400000001));
#661=CARTESIAN_POINT('Ctrl Pts',(28.63424672089,66.3717965271297,9.05466400000002));
#662=CARTESIAN_POINT('Ctrl Pts',(27.6631118583646,67.514776484983,9.05466400000002));
#663=CARTESIAN_POINT('',(23.0914931124592,63.6304928526946,9.05466400000001));
#664=CARTESIAN_POINT('Origin',(25.3773024854119,65.5726346688388,9.05466400000001));
#665=CARTESIAN_POINT('',(25.6812997922247,60.5824124635413,7.05466400000001));
#666=CARTESIAN_POINT('Ctrl Pts',(23.0914931124592,63.6304928526946,9.05466400000001));
#667=CARTESIAN_POINT('Ctrl Pts',(24.0626279749846,62.4875128948413,9.05466400000001));
#668=CARTESIAN_POINT('Ctrl Pts',(25.6812997922247,60.5824124635413,7.05466400000001));
#669=CARTESIAN_POINT('Origin',(25.3773024854119,65.5726346688388,7.05466400000001));
#670=CARTESIAN_POINT('Origin',(25.3773024854119,65.5726346688388,5.05466400000001));
#671=CARTESIAN_POINT('',(23.0914931124591,63.6304928526946,26.454664));
#672=CARTESIAN_POINT('Origin',(25.3773024854119,65.5726346688388,26.454664));
#673=CARTESIAN_POINT('',(23.0914931124592,63.6304928526946,5.05466400000001));
#674=CARTESIAN_POINT('',(27.6631118583646,67.5147764849831,5.05466400000001));
#675=CARTESIAN_POINT('',(27.6631118583646,67.5147764849831,5.05466400000001));
#676=CARTESIAN_POINT('',(23.0914931124592,63.6304928526946,5.05466400000001));
#677=CARTESIAN_POINT('Origin',(25.3773024854119,65.5726346688388,5.05466400000001));
#678=CARTESIAN_POINT('',(23.0914931124592,63.6304928526946,5.05466400000001));
#679=CARTESIAN_POINT('Origin',(36.4638509390106,52.5242897136583,4.05466400000001));
#680=CARTESIAN_POINT('',(36.159427265893,57.5150137319993,5.05466400000001));
#681=CARTESIAN_POINT('',(36.28119673514,55.5187241246629,3.05466400000001));
#682=CARTESIAN_POINT('',(36.159427265893,57.5150137319993,5.05466400000001));
#683=CARTESIAN_POINT('',(33.5382254875968,53.1881539452898,3.05466400000001));
#684=CARTESIAN_POINT('Origin',(36.4638509390106,52.5242897136583,3.05466400000001));
#685=CARTESIAN_POINT('',(31.5878085199876,53.6307300997108,5.05466400000001));
#686=CARTESIAN_POINT('',(33.5382254875968,53.1881539452898,3.05466400000001));
#687=CARTESIAN_POINT('Origin',(36.4638509390106,52.5242897136583,5.05466400000001));
#688=CARTESIAN_POINT('Ctrl Pts',(36.5503387072174,57.5235416442925,5.05466400000001));
#689=CARTESIAN_POINT('Ctrl Pts',(36.419990162127,57.5257966926298,5.05466400000001));
#690=CARTESIAN_POINT('Ctrl Pts',(36.2895534575242,57.5229511561244,5.05466400000001));
#691=CARTESIAN_POINT('Ctrl Pts',(36.159427265893,57.5150137319993,5.05466400000001));
#692=CARTESIAN_POINT('Ctrl Pts',(36.5388070047898,56.856974720208,4.38799733333335));
#693=CARTESIAN_POINT('Ctrl Pts',(36.4258382657115,56.8589290954336,4.38799733333335));
#694=CARTESIAN_POINT('Ctrl Pts',(36.3127931217224,56.8564629637956,4.38799733333335));
#695=CARTESIAN_POINT('Ctrl Pts',(36.2000170889754,56.8495838628871,4.38799733333335));
#696=CARTESIAN_POINT('Ctrl Pts',(36.5272753023623,56.1904077961234,3.72133066666668));
#697=CARTESIAN_POINT('Ctrl Pts',(36.431686369296,56.1920614982374,3.72133066666668));
#698=CARTESIAN_POINT('Ctrl Pts',(36.3360327859206,56.1899747714668,3.72133066666668));
#699=CARTESIAN_POINT('Ctrl Pts',(36.2406069120577,56.184153993775,3.72133066666668));
#700=CARTESIAN_POINT('Ctrl Pts',(36.5157435999347,55.5238408720388,3.05466400000001));
#701=CARTESIAN_POINT('Ctrl Pts',(36.4375344728805,55.5251939010412,3.05466400000001));
#702=CARTESIAN_POINT('Ctrl Pts',(36.3592724501188,55.523486579138,3.05466400000001));
#703=CARTESIAN_POINT('Ctrl Pts',(36.28119673514,55.5187241246629,3.05466400000001));
#704=CARTESIAN_POINT('',(36.5423934261659,57.0642806128219,4.5953342464259));
#705=CARTESIAN_POINT('Ctrl Pts',(36.159427265893,57.5150137319993,5.05466400000001));
#706=CARTESIAN_POINT('Ctrl Pts',(36.2827761994799,57.3698378513335,4.90224738200798));
#707=CARTESIAN_POINT('Ctrl Pts',(36.4113588862731,57.2185020898416,4.74726607279037));
#708=CARTESIAN_POINT('Ctrl Pts',(36.5423934261658,57.064280612822,4.59533424642601));
#709=CARTESIAN_POINT('',(36.5157435999347,55.5238408720388,3.05466400000001));
#710=CARTESIAN_POINT('',(36.5503387072174,57.5235416442925,5.05466400000001));
#711=CARTESIAN_POINT('Ctrl Pts',(36.5157435999347,55.5238408720388,3.05466400000001));
#712=CARTESIAN_POINT('Ctrl Pts',(36.4375344728805,55.5251939010412,3.05466400000001));
#713=CARTESIAN_POINT('Ctrl Pts',(36.3592724501188,55.523486579138,3.05466400000001));
#714=CARTESIAN_POINT('Ctrl Pts',(36.28119673514,55.5187241246629,3.05466400000001));
#715=CARTESIAN_POINT('Origin',(35.9298693288309,56.5341262163737,4.05466400000001));
#716=CARTESIAN_POINT('',(37.8711539742195,55.500392080119,3.05466400000001));
#717=CARTESIAN_POINT('',(37.2623839740837,56.2168856753424,3.76052016610891));
#718=CARTESIAN_POINT('',(35.9125717751895,55.5342758302468,3.05466400000001));
#719=CARTESIAN_POINT('Ctrl Pts',(31.5878085199876,53.6307300997108,5.05466400000001));
#720=CARTESIAN_POINT('Ctrl Pts',(31.271803118381,52.2381058225266,5.05466400000001));
#721=CARTESIAN_POINT('Ctrl Pts',(31.5890278973407,50.7144935639077,5.05466400000001));
#722=CARTESIAN_POINT('Ctrl Pts',(32.4345846853169,49.5637131723668,5.05466400000001));
#723=CARTESIAN_POINT('Ctrl Pts',(32.2379475091906,53.4832047149038,4.38799733333335));
#724=CARTESIAN_POINT('Ctrl Pts',(31.9640761611316,52.2762636746775,4.38799733333335));
#725=CARTESIAN_POINT('Ctrl Pts',(32.2390043028967,50.9557997172078,4.38799733333335));
#726=CARTESIAN_POINT('Ctrl Pts',(32.9718201858093,49.9584567112057,4.38799733333335));
#727=CARTESIAN_POINT('Ctrl Pts',(32.8880864983937,53.3356793300968,3.72133066666668));
#728=CARTESIAN_POINT('Ctrl Pts',(32.6563492038822,52.3144215268284,3.72133066666668));
#729=CARTESIAN_POINT('Ctrl Pts',(32.8889807084527,51.1971058705078,3.72133066666668));
#730=CARTESIAN_POINT('Ctrl Pts',(33.5090556863018,50.3532002500446,3.72133066666668));
#731=CARTESIAN_POINT('Ctrl Pts',(33.5382254875968,53.1881539452898,3.05466400000001));
#732=CARTESIAN_POINT('Ctrl Pts',(33.3486222466328,52.3525793789793,3.05466400000001));
#733=CARTESIAN_POINT('Ctrl Pts',(33.5389571140087,51.4384120238079,3.05466400000001));
#734=CARTESIAN_POINT('Ctrl Pts',(34.0462911867943,50.7479437888834,3.05466400000001));
#735=CARTESIAN_POINT('',(34.040677446589,50.7438189913442,3.06163020655974));
#736=CARTESIAN_POINT('Ctrl Pts',(34.040677446589,50.7438189913442,3.06163020655974));
#737=CARTESIAN_POINT('Ctrl Pts',(33.9486876530392,50.8520866423284,3.07165354719003));
#738=CARTESIAN_POINT('Ctrl Pts',(33.8575873589213,50.959307394409,3.09159907984453));
#739=CARTESIAN_POINT('Ctrl Pts',(33.5979089885193,51.2649365961922,3.17467283910239));
#740=CARTESIAN_POINT('Ctrl Pts',(33.4338150658397,51.4580674084671,3.25913269252276));
#741=CARTESIAN_POINT('Ctrl Pts',(32.9681652580503,52.0061152834013,3.56228251486805));
#742=CARTESIAN_POINT('Ctrl Pts',(32.648760061703,52.382040144043,3.85327357278107));
#743=CARTESIAN_POINT('Ctrl Pts',(32.0623773906231,53.072184908215,4.48186986505389));
#744=CARTESIAN_POINT('Ctrl Pts',(31.8176937084207,53.3601660687758,4.77060541977104));
#745=CARTESIAN_POINT('Ctrl Pts',(31.5878085199876,53.6307300997108,5.05466400000001));
#746=CARTESIAN_POINT('',(34.0462911867905,50.7479437888887,3.05466400000001));
#747=CARTESIAN_POINT('Ctrl Pts',(33.5382254875968,53.1881539452898,3.05466400000001));
#748=CARTESIAN_POINT('Ctrl Pts',(33.3486222466328,52.3525793789793,3.05466400000001));
#749=CARTESIAN_POINT('Ctrl Pts',(33.5389571140087,51.4384120238079,3.05466400000001));
#750=CARTESIAN_POINT('Ctrl Pts',(34.0462911867943,50.7479437888834,3.05466400000001));
#751=CARTESIAN_POINT('',(34.0462911867905,50.7479437888887,3.05466400000001));
#752=CARTESIAN_POINT('Origin',(30.7121697767048,53.5967344773888,4.05466400000001));
#753=CARTESIAN_POINT('',(34.1046102138061,50.6685731378597,3.05466400000001));
#754=CARTESIAN_POINT('',(27.1306732019036,58.8765682779041,3.81455423898249));
#755=CARTESIAN_POINT('',(31.5180230274448,54.1888497856453,3.05466400000001));
#756=CARTESIAN_POINT('Origin',(34.0462911867905,50.7479437888887,0.0546640000000126));
#757=CARTESIAN_POINT('',(34.1046102138061,50.6685731378597,7.05466400000001));
#758=CARTESIAN_POINT('',(34.1046102138061,50.6685731378597,2.55466400000001));
#759=CARTESIAN_POINT('',(34.0462911867905,50.7479437888887,0.0546640000000126));
#760=CARTESIAN_POINT('',(34.0462911867905,50.7479437888887,0.0546640000000126));
#761=CARTESIAN_POINT('',(39.4638509390106,43.3747884650382,0.0546640000000126));
#762=CARTESIAN_POINT('',(39.4638509390106,43.3747884650382,0.0546640000000126));
#763=CARTESIAN_POINT('',(39.4638509390106,43.3747884650382,5.05466400000001));
#764=CARTESIAN_POINT('',(39.4638509390106,43.3747884650382,0.0546640000000126));
#765=CARTESIAN_POINT('',(36.4143624813258,47.5250614818859,5.05466400000001));
#766=CARTESIAN_POINT('',(39.4638509390106,43.3747884650382,5.05466400000001));
#767=CARTESIAN_POINT('',(34.1719288677259,50.576954232994,7.04664282601832));
#768=CARTESIAN_POINT('Ctrl Pts',(34.1719288677251,50.576954232995,7.04664282601842));
#769=CARTESIAN_POINT('Ctrl Pts',(34.1871849520138,50.5561911063773,7.04482502813874));
#770=CARTESIAN_POINT('Ctrl Pts',(34.2024414084832,50.5354274732316,7.04267773435228));
#771=CARTESIAN_POINT('Ctrl Pts',(34.3170378461932,50.3794647569091,7.0240884437252));
#772=CARTESIAN_POINT('Ctrl Pts',(34.4147634468517,50.2464628029898,6.9943500806227));
#773=CARTESIAN_POINT('Ctrl Pts',(34.6880347234491,49.8745478338795,6.8774355109443));
#774=CARTESIAN_POINT('Ctrl Pts',(34.8593611326651,49.6413771289396,6.76369178848405));
#775=CARTESIAN_POINT('Ctrl Pts',(35.2474767134087,49.1131621038527,6.44791467571903));
#776=CARTESIAN_POINT('Ctrl Pts',(35.4698596813299,48.8105047749345,6.21811266187436));
#777=CARTESIAN_POINT('Ctrl Pts',(35.9257509032583,48.1900488974187,5.69780168910324));
#778=CARTESIAN_POINT('Ctrl Pts',(36.1796148963277,47.844546727135,5.37180988847083));
#779=CARTESIAN_POINT('Ctrl Pts',(36.4143624813258,47.5250614818859,5.05466400000001));
#780=CARTESIAN_POINT('',(32.1958621776338,53.266328656666,7.28209576213238));
#781=CARTESIAN_POINT('Origin',(36.4638509390106,52.5242897136583,0.0546640000000126));
#782=CARTESIAN_POINT('',(36.5157435999347,55.5238408720388,0.0546640000000126));
#783=CARTESIAN_POINT('',(36.5157435999347,55.5238408720388,0.0546640000000126));
#784=CARTESIAN_POINT('Origin',(36.4638509390106,52.5242897136583,0.0546640000000126));
#785=CARTESIAN_POINT('Origin',(36.4638509390106,52.5242897136583,6.05466400000001));
#786=CARTESIAN_POINT('',(40.9638509390106,54.70253029284,5.05466400000001));
#787=CARTESIAN_POINT('',(40.9638509390106,50.3460491344765,5.05466400000001));
#788=CARTESIAN_POINT('Ctrl Pts',(40.9638509390105,50.3460491344765,5.05466400000001));
#789=CARTESIAN_POINT('Ctrl Pts',(40.9638509390106,52.5242897136583,6.00371040056098));
#790=CARTESIAN_POINT('Ctrl Pts',(40.9638509390106,54.7025302928401,5.054664));
#791=CARTESIAN_POINT('',(40.5144866913585,55.4546620488052,5.05466400000001));
#792=CARTESIAN_POINT('Origin',(36.4638509390106,52.5242897136583,5.05466400000001));
#793=CARTESIAN_POINT('',(38.8940616541165,54.2823895981014,7.05466400000001));
#794=CARTESIAN_POINT('',(40.5144866913585,55.4546620488052,5.05466400000001));
#795=CARTESIAN_POINT('',(36.4341599503627,49.5249634945405,7.05466400000001));
#796=CARTESIAN_POINT('Origin',(36.4638509390106,52.5242897136583,7.05466400000001));
#797=CARTESIAN_POINT('',(36.4341599503627,49.5249634945405,7.05466400000001));
#798=CARTESIAN_POINT('Origin',(36.4638509390106,52.5242897136583,5.05466400000001));
#799=CARTESIAN_POINT('Ctrl Pts',(40.2738008793929,55.7614201516503,5.05466400000001));
#800=CARTESIAN_POINT('Ctrl Pts',(40.357977164307,55.6623486320334,5.05466400000001));
#801=CARTESIAN_POINT('Ctrl Pts',(40.4382871494146,55.5599922094843,5.05466400000001));
#802=CARTESIAN_POINT('Ctrl Pts',(40.5144866913585,55.4546620488052,5.05466400000001));
#803=CARTESIAN_POINT('Ctrl Pts',(39.7657540235831,55.329757277701,5.72133066666668));
#804=CARTESIAN_POINT('Ctrl Pts',(39.8387056211512,55.2438966860042,5.72133066666668));
#805=CARTESIAN_POINT('Ctrl Pts',(39.9083064798759,55.1551892245863,5.72133066666668));
#806=CARTESIAN_POINT('Ctrl Pts',(39.9743450122779,55.0639045652373,5.72133066666668));
#807=CARTESIAN_POINT('Ctrl Pts',(39.2577071677732,54.8980944037517,6.38799733333335));
#808=CARTESIAN_POINT('Ctrl Pts',(39.3194340779954,54.8254447399751,6.38799733333335));
#809=CARTESIAN_POINT('Ctrl Pts',(39.3783258103373,54.7503862396883,6.38799733333335));
#810=CARTESIAN_POINT('Ctrl Pts',(39.4342033331972,54.6731470816693,6.38799733333335));
#811=CARTESIAN_POINT('Ctrl Pts',(38.7496603119633,54.4664315298025,7.05466400000001));
#812=CARTESIAN_POINT('Ctrl Pts',(38.8001625348397,54.4069927939459,7.05466400000001));
#813=CARTESIAN_POINT('Ctrl Pts',(38.8483451407986,54.3455832547904,7.05466400000001));
#814=CARTESIAN_POINT('Ctrl Pts',(38.8940616541165,54.2823895981014,7.05466400000001));
#815=CARTESIAN_POINT('',(39.9247685687154,55.4648642560567,5.51266940729152));
#816=CARTESIAN_POINT('Ctrl Pts',(40.5144866913585,55.4546620488052,5.05466400000001));
#817=CARTESIAN_POINT('Ctrl Pts',(40.3238736928088,55.4579596807438,5.20716817609976));
#818=CARTESIAN_POINT('Ctrl Pts',(40.1259309253748,55.4613841187249,5.3616229222029));
#819=CARTESIAN_POINT('Ctrl Pts',(39.9247685687154,55.4648642560566,5.51266940729151));
#820=CARTESIAN_POINT('',(38.7496603119633,54.4664315298025,7.05466400000001));
#821=CARTESIAN_POINT('',(40.2738008793929,55.7614201516503,5.05466400000001));
#822=CARTESIAN_POINT('Origin',(36.4638509390106,52.5242897136583,7.05466400000001));
#823=CARTESIAN_POINT('Origin',(40.42754551753,54.0360548454893,6.05466400000001));
#824=CARTESIAN_POINT('',(37.8711539742195,55.500392080119,7.05466400000001));
#825=CARTESIAN_POINT('',(41.6056576319285,55.435784636606,4.25054269015369));
#826=CARTESIAN_POINT('',(38.7496603119633,54.4664315298025,7.05466400000001));
#827=CARTESIAN_POINT('Ctrl Pts',(36.4143624813258,47.5250614818859,5.05466400000001));
#828=CARTESIAN_POINT('Ctrl Pts',(34.9869068348138,47.5391921786823,5.05466400000001));
#829=CARTESIAN_POINT('Ctrl Pts',(33.5782156944108,48.1992844471565,5.05466400000001));
#830=CARTESIAN_POINT('Ctrl Pts',(32.6539009986268,49.2871592756679,5.05466400000001));
#831=CARTESIAN_POINT('Ctrl Pts',(36.4209616376714,48.1916954861041,5.72133066666668));
#832=CARTESIAN_POINT('Ctrl Pts',(35.1838534666818,48.2039418914557,5.72133066666668));
#833=CARTESIAN_POINT('Ctrl Pts',(33.9630076040089,48.7760125830613,5.72133066666668));
#834=CARTESIAN_POINT('Ctrl Pts',(33.1619478544369,49.7188221496169,5.72133066666668));
#835=CARTESIAN_POINT('Ctrl Pts',(36.4275607940171,48.8583294903223,6.38799733333335));
#836=CARTESIAN_POINT('Ctrl Pts',(35.3808000985499,48.8686916042291,6.38799733333335));
#837=CARTESIAN_POINT('Ctrl Pts',(34.3477995136071,49.3527407189661,6.38799733333335));
#838=CARTESIAN_POINT('Ctrl Pts',(33.669994710247,50.150485023566,6.38799733333335));
#839=CARTESIAN_POINT('Ctrl Pts',(36.4341599503627,49.5249634945404,7.05466400000001));
#840=CARTESIAN_POINT('Ctrl Pts',(35.5777467304179,49.5334413170024,7.05466400000001));
#841=CARTESIAN_POINT('Ctrl Pts',(34.7325914232052,49.9294688548709,7.05466400000001));
#842=CARTESIAN_POINT('Ctrl Pts',(34.178041566057,50.582147897515,7.05466400000001));
#843=CARTESIAN_POINT('',(34.1780415660578,50.5821478975141,7.05466400000001));
#844=CARTESIAN_POINT('Origin',(36.4638509390106,52.5242897136583,7.05466400000001));
#845=CARTESIAN_POINT('',(34.1780415660578,50.5821478975141,7.05466400000001));
#846=CARTESIAN_POINT('Origin',(28.7885119773955,55.3809550689434,6.05466400000001));
#847=CARTESIAN_POINT('',(23.0914931124592,63.6304928526946,7.05466400000001));
#848=CARTESIAN_POINT('Origin',(37.2138509390106,49.4495390893482,5.05466400000001));
#849=CARTESIAN_POINT('',(40.9638509390106,55.4468879835189,5.05466400000001));
#850=CARTESIAN_POINT('',(40.9638509390106,110.524290071286,5.05466400000001));
#851=CARTESIAN_POINT('',(36.5157435999347,55.5238408720388,5.05466400000001));
#852=CARTESIAN_POINT('Origin',(37.2138509390106,49.4495390893482,5.05466400000001));
#853=CARTESIAN_POINT('',(40.9638509390106,43.3747884650382,5.05466400000001));
#854=CARTESIAN_POINT('',(40.9638509390106,43.3747884650382,5.05466400000001));
#855=CARTESIAN_POINT('',(40.9638509390106,110.524290071286,5.05466400000001));
#856=CARTESIAN_POINT('Origin',(23.0914931124592,63.6304928526946,5.05466400000001));
#857=CARTESIAN_POINT('',(23.0914931124592,63.6304928526946,7.05466400000001));
#858=CARTESIAN_POINT('',(23.0914931124592,63.6304928526946,5.05466400000001));
#859=CARTESIAN_POINT('Origin',(25.3773024854119,65.5726346688388,7.05466400000001));
#860=CARTESIAN_POINT('',(26.8773024854119,65.5726346688388,26.454664));
#861=CARTESIAN_POINT('Origin',(25.3773024854119,65.5726346688388,26.454664));
#862=CARTESIAN_POINT('',(26.8773024854119,65.5726346688388,7.05466400000001));
#863=CARTESIAN_POINT('',(26.8773024854119,65.5726346688388,7.05466400000001));
#864=CARTESIAN_POINT('Origin',(25.3773024854119,65.5726346688388,7.05466400000001));
#865=CARTESIAN_POINT('Origin',(25.3773024854119,65.5726346688388,26.454664));
#866=CARTESIAN_POINT('Origin',(30.9205767122112,59.0484621912486,7.05466400000001));
#867=CARTESIAN_POINT('',(38.7496603119633,54.4664315298025,7.05466400000001));
#868=CARTESIAN_POINT('',(38.1138509390106,52.5242897136583,7.05466400000001));
#869=CARTESIAN_POINT('Origin',(36.4638509390106,52.5242897136583,7.05466400000001));
#870=CARTESIAN_POINT('Origin',(38.7496603119633,54.4664315298025,5.05466400000001));
#871=CARTESIAN_POINT('',(37.8711539742195,55.500392080119,2.55466400000001));
#872=CARTESIAN_POINT('',(38.7496603119633,54.4664315298025,5.05466400000001));
#873=CARTESIAN_POINT('Origin',(30.9205767122112,59.0484621912486,7.05466400000001));
#874=CARTESIAN_POINT('Origin',(30.9205767122112,59.0484621912486,5.05466400000001));
#875=CARTESIAN_POINT('Origin',(36.4638509390106,52.5242897136583,0.0546640000000126));
#876=CARTESIAN_POINT('',(38.1138509390106,52.5242897136583,0.0546640000000126));
#877=CARTESIAN_POINT('',(38.1138509390106,52.5242897136583,0.0546640000000126));
#878=CARTESIAN_POINT('Origin',(36.4638509390106,52.5242897136583,0.0546640000000126));
#879=CARTESIAN_POINT('Origin',(40.9638509390106,43.3747884650382,0.0546640000000129));
#880=CARTESIAN_POINT('',(40.9638509390106,55.4468879835189,0.0546640000000126));
#881=CARTESIAN_POINT('',(40.9638509390106,43.3747884650382,0.0546640000000126));
#882=CARTESIAN_POINT('',(40.9638509390106,110.524290071286,0.0546640000000129));
#883=CARTESIAN_POINT('',(40.9638509390106,55.4468879835189,0.0546640000000126));
#884=CARTESIAN_POINT('',(40.9638509390106,43.3747884650382,0.0546640000000126));
#885=CARTESIAN_POINT('Origin',(39.4638509390106,43.3747884650382,0.0546640000000126));
#886=CARTESIAN_POINT('',(40.9638509390106,43.3747884650382,0.0546640000000126));
#887=CARTESIAN_POINT('Origin',(40.9638509390106,55.4468879835189,0.0546640000000126));
#888=CARTESIAN_POINT('',(36.5157435999347,55.5238408720388,0.0546640000000126));
#889=CARTESIAN_POINT('Origin',(37.2138509390106,49.4495390893482,0.0546640000000129));
#890=UNCERTAINTY_MEASURE_WITH_UNIT(LENGTH_MEASURE(0.01),#894,
'DISTANCE_ACCURACY_VALUE',
'Maximum model space distance between geometric entities at asserted c
onnectivities');
#891=UNCERTAINTY_MEASURE_WITH_UNIT(LENGTH_MEASURE(0.01),#894,
'DISTANCE_ACCURACY_VALUE',
'Maximum model space distance between geometric entities at asserted c
onnectivities');
#892=(
GEOMETRIC_REPRESENTATION_CONTEXT(3)
GLOBAL_UNCERTAINTY_ASSIGNED_CONTEXT((#890))
GLOBAL_UNIT_ASSIGNED_CONTEXT((#894,#896,#897))
REPRESENTATION_CONTEXT('','3D')
);
#893=(
GEOMETRIC_REPRESENTATION_CONTEXT(3)
GLOBAL_UNCERTAINTY_ASSIGNED_CONTEXT((#891))
GLOBAL_UNIT_ASSIGNED_CONTEXT((#894,#896,#897))
REPRESENTATION_CONTEXT('','3D')
);
#894=(
LENGTH_UNIT()
NAMED_UNIT(*)
SI_UNIT(.MILLI.,.METRE.)
);
#895=(
LENGTH_UNIT()
NAMED_UNIT(*)
SI_UNIT($,.METRE.)
);
#896=(
NAMED_UNIT(*)
PLANE_ANGLE_UNIT()
SI_UNIT($,.RADIAN.)
);
#897=(
NAMED_UNIT(*)
SI_UNIT($,.STERADIAN.)
SOLID_ANGLE_UNIT()
);
#898=SHAPE_DEFINITION_REPRESENTATION(#899,#900);
#899=PRODUCT_DEFINITION_SHAPE('',$,#902);
#900=SHAPE_REPRESENTATION('',(#492),#892);
#901=PRODUCT_DEFINITION_CONTEXT('part definition',#906,'design');
#902=PRODUCT_DEFINITION('2026-08-25-07-36-07-246','USB Hub Support',#903,
#901);
#903=PRODUCT_DEFINITION_FORMATION('',$,#908);
#904=PRODUCT_RELATED_PRODUCT_CATEGORY('USB Hub Support',
'USB Hub Support',(#908));
#905=APPLICATION_PROTOCOL_DEFINITION('international standard',
'automotive_design',2009,#906);
#906=APPLICATION_CONTEXT(
'Core Data for Automotive Mechanical Design Process');
#907=PRODUCT_CONTEXT('part definition',#906,'mechanical');
#908=PRODUCT('2026-08-25-07-36-07-246','USB Hub Support',$,(#907));
#909=PRESENTATION_STYLE_ASSIGNMENT((#910));
#910=SURFACE_STYLE_USAGE(.BOTH.,#911);
#911=SURFACE_SIDE_STYLE('',(#912));
#912=SURFACE_STYLE_FILL_AREA(#913);
#913=FILL_AREA_STYLE('Steel - Satin',(#914));
#914=FILL_AREA_STYLE_COLOUR('Steel - Satin',#915);
#915=COLOUR_RGB('Steel - Satin',0.627450980392157,0.627450980392157,0.627450980392157);
ENDSEC;
END-ISO-10303-21;
